<svg xmlns="http://www.w3.org/2000/svg" xmlns:xlink="http://www.w3.org/1999/xlink" width="500" zoomAndPan="magnify" viewBox="0 0 375 374.999991" height="500" preserveAspectRatio="xMidYMid meet" version="1.0"><defs><g/><clipPath id="a4e18fe2ac"><path d="M 23.671875 19 L 222 19 L 222 375 L 23.671875 375 Z M 23.671875 19 " clip-rule="nonzero"/></clipPath></defs><path fill="#3fb83d" d="M 292.539062 231.101562 C 283.875 222.363281 215.632812 219.140625 218.007812 284.894531 C 218.007812 284.894531 237.585938 237.148438 274.871094 235.777344 C 237.949219 249.433594 209.339844 306.730469 218.03125 340.011719 C 224.253906 318.730469 228.082031 301.015625 244.921875 292.984375 C 273.449219 279.375 296.582031 253.523438 292.539062 231.101562 Z M 292.539062 231.101562 " fill-opacity="1" fill-rule="nonzero"/><path fill="#3fb83d" d="M 147.171875 239.632812 C 156.34375 240.359375 191.132812 277.738281 152.464844 308.132812 C 152.464844 308.132812 170.253906 273.910156 153.039062 251.976562 C 163.070312 279.636719 144.191406 323.628906 121.007812 334.730469 C 130.144531 320.90625 138.40625 310.171875 134.855469 296.6875 C 128.851562 273.835938 132.433594 248.15625 147.171875 239.632812 Z M 147.171875 239.632812 " fill-opacity="1" fill-rule="nonzero"/><path fill="#3fb83d" d="M 278.640625 176.972656 C 274.269531 169.804688 229.539062 156.867188 220.710938 200.84375 C 220.710938 200.84375 241.246094 172.285156 266.175781 177.277344 C 239.539062 180.488281 211.503906 213.949219 212 237.390625 C 219.492188 224.261719 224.832031 213.125 237.265625 210.464844 C 258.335938 205.953125 277.765625 192.472656 278.640625 176.972656 Z M 278.640625 176.972656 " fill-opacity="1" fill-rule="nonzero"/><path fill="#3fb83d" d="M 114.867188 144.828125 C 125.5 146.09375 164.246094 191.140625 117.90625 224.714844 C 117.90625 224.714844 140.148438 185.738281 121.121094 159.453125 C 131.53125 192.0625 107.578125 242.351562 80.121094 254.214844 C 91.375 238.554688 101.464844 226.453125 97.957031 210.605469 C 92.011719 183.765625 97.34375 154.070312 114.867188 144.828125 Z M 114.867188 144.828125 " fill-opacity="1" fill-rule="nonzero"/><path fill="#3fb83d" d="M 166.550781 127.691406 C 172.523438 124.394531 209.304688 133.296875 197.808594 167.886719 C 197.808594 167.886719 194.832031 139.457031 175.222656 132.929688 C 192.722656 145.933594 199.023438 180.847656 189.21875 197.191406 C 189.222656 184.902344 189.945312 174.894531 182.242188 168.003906 C 169.199219 156.332031 160.921875 138.984375 166.550781 127.691406 Z M 166.550781 127.691406 " fill-opacity="1" fill-rule="nonzero"/><path fill="#3fb83d" d="M 321.402344 127.128906 C 332.054688 114.21875 338.199219 95.207031 328.308594 80.875 C 308.808594 52.613281 291.652344 31.460938 279.429688 18.21875 C 274.167969 12.519531 268.703125 16.941406 273.421875 23.773438 C 283.769531 38.761719 294.1875 54.929688 304.460938 70.609375 C 311.210938 80.929688 300.730469 86.269531 293.929688 76.027344 C 282.550781 58.886719 266.59375 36.300781 258.007812 24.160156 C 253.683594 18.042969 246.949219 21.945312 251.222656 29 C 259.816406 43.179688 274.722656 66.148438 282.25 83.0625 C 284.496094 88.113281 284.59375 91.246094 282.390625 92.527344 C 280.1875 93.808594 277.511719 92.179688 274.230469 87.726562 C 263.242188 72.816406 250.648438 48.511719 242.566406 34.03125 C 238.550781 26.828125 231.832031 30.75 235.007812 37.539062 C 241.3125 51.007812 253.058594 76.035156 262.332031 94.410156 C 267.878906 105.382812 258.054688 111.851562 252.425781 100.882812 C 243.871094 84.203125 234.960938 67.152344 227.050781 50.75 C 223.441406 43.273438 216.898438 45.832031 219.253906 53.226562 C 224.722656 70.40625 234.628906 95.765625 249.554688 126.695312 C 258.125 144.457031 282.089844 147.304688 299.539062 142.050781 C 311.839844 162.90625 318.917969 187.214844 318.917969 213.183594 C 318.917969 290.636719 269.925781 355.980469 182.390625 355.980469 C 175.453125 355.980469 168.761719 355.476562 162.324219 354.519531 C 196.320312 368.277344 249.390625 363.25 274.738281 346.171875 C 318.042969 316.992188 347.152344 268.300781 347.152344 213.179688 C 347.148438 181.550781 321.402344 127.128906 321.402344 127.128906 Z M 321.402344 127.128906 " fill-opacity="1" fill-rule="nonzero"/><path fill="#299640" d="M 321.402344 127.128906 C 332.054688 114.21875 338.199219 95.207031 328.308594 80.875 C 308.808594 52.613281 291.652344 31.460938 279.429688 18.21875 C 274.167969 12.519531 268.703125 16.941406 273.421875 23.773438 C 283.769531 38.761719 294.1875 54.929688 304.460938 70.609375 C 307.246094 74.871094 330.253906 106.277344 305.953125 125.71875 C 318.921875 140.925781 351.308594 213.195312 339.566406 261.078125 C 347.9375 239.632812 347.746094 224.371094 347.152344 213.179688 C 345.066406 174.140625 321.402344 127.128906 321.402344 127.128906 Z M 321.402344 127.128906 " fill-opacity="1" fill-rule="nonzero"/><g clip-path="url(#a4e18fe2ac)"><path fill="#3fb83d" d="M 107.25 331.707031 C 66.492188 301.121094 46.980469 246.328125 54.007812 194.925781 C 57.019531 172.898438 64.996094 152.773438 76.648438 135.519531 C 142.4375 144.910156 176.613281 51.296875 142.742188 25.667969 C 108.9375 0.0859375 28.390625 58.132812 54.828125 118.769531 C 45.195312 131.941406 23.671875 165.113281 23.671875 213.179688 C 23.671875 302.503906 92.019531 374.914062 181.34375 374.914062 C 195.113281 374.914062 208.574219 373.195312 221.5 369.957031 C 159.046875 373.371094 112.714844 335.808594 107.25 331.707031 Z M 107.25 331.707031 " fill-opacity="1" fill-rule="nonzero"/></g><path fill="#299640" d="M 107.25 331.707031 C 80.710938 311.792969 63.175781 281.601562 56.117188 248.769531 C 52.335938 231.191406 51.558594 212.851562 54.011719 194.925781 C 57.023438 172.898438 65 152.773438 76.652344 135.519531 C 138.324219 144.324219 172.21875 62.597656 148.308594 31.230469 C 156.015625 65.84375 125.550781 127.054688 74.75 121.054688 C 63.390625 129.3125 48.050781 157.859375 41.574219 197.199219 C 31.445312 258.664062 75.007812 318.039062 107.25 331.707031 Z M 107.25 331.707031 " fill-opacity="1" fill-rule="nonzero"/><path fill="#3fb83d" d="M 208.886719 94.847656 C 208.886719 95.644531 208.808594 96.433594 208.65625 97.21875 C 208.5 98 208.269531 98.757812 207.964844 99.496094 C 207.660156 100.230469 207.285156 100.929688 206.839844 101.59375 C 206.398438 102.257812 205.894531 102.871094 205.332031 103.433594 C 204.769531 103.996094 204.15625 104.5 203.492188 104.945312 C 202.828125 105.386719 202.128906 105.761719 201.390625 106.066406 C 200.65625 106.371094 199.894531 106.601562 199.113281 106.757812 C 198.332031 106.914062 197.542969 106.992188 196.746094 106.992188 C 195.949219 106.992188 195.160156 106.914062 194.375 106.757812 C 193.59375 106.601562 192.835938 106.371094 192.097656 106.066406 C 191.363281 105.761719 190.664062 105.386719 190 104.945312 C 189.335938 104.5 188.722656 103.996094 188.160156 103.433594 C 187.59375 102.871094 187.09375 102.257812 186.648438 101.59375 C 186.207031 100.929688 185.832031 100.230469 185.527344 99.496094 C 185.222656 98.757812 184.992188 98 184.835938 97.21875 C 184.679688 96.433594 184.601562 95.644531 184.601562 94.847656 C 184.601562 94.050781 184.679688 93.261719 184.835938 92.480469 C 184.992188 91.695312 185.222656 90.9375 185.527344 90.203125 C 185.832031 89.464844 186.207031 88.765625 186.648438 88.101562 C 187.09375 87.4375 187.59375 86.824219 188.160156 86.261719 C 188.722656 85.699219 189.335938 85.195312 190 84.75 C 190.664062 84.308594 191.363281 83.933594 192.097656 83.628906 C 192.835938 83.324219 193.59375 83.09375 194.375 82.9375 C 195.160156 82.78125 195.949219 82.707031 196.746094 82.707031 C 197.542969 82.707031 198.332031 82.78125 199.113281 82.9375 C 199.894531 83.09375 200.65625 83.324219 201.390625 83.628906 C 202.128906 83.933594 202.828125 84.308594 203.492188 84.75 C 204.15625 85.195312 204.769531 85.699219 205.332031 86.261719 C 205.894531 86.824219 206.398438 87.4375 206.839844 88.101562 C 207.285156 88.765625 207.660156 89.464844 207.964844 90.203125 C 208.269531 90.9375 208.5 91.695312 208.65625 92.480469 C 208.808594 93.261719 208.886719 94.050781 208.886719 94.847656 Z M 208.886719 94.847656 " fill-opacity="1" fill-rule="nonzero"/><path fill="#3fb83d" d="M 234.703125 144.828125 C 234.703125 145.320312 234.65625 145.804688 234.558594 146.289062 C 234.464844 146.769531 234.320312 147.234375 234.132812 147.691406 C 233.945312 148.144531 233.714844 148.574219 233.445312 148.980469 C 233.171875 149.390625 232.859375 149.765625 232.515625 150.113281 C 232.167969 150.460938 231.789062 150.769531 231.382812 151.042969 C 230.972656 151.316406 230.542969 151.546875 230.089844 151.734375 C 229.636719 151.921875 229.167969 152.0625 228.6875 152.160156 C 228.207031 152.253906 227.71875 152.304688 227.230469 152.304688 C 226.738281 152.304688 226.253906 152.253906 225.769531 152.160156 C 225.289062 152.0625 224.824219 151.921875 224.371094 151.734375 C 223.914062 151.546875 223.484375 151.316406 223.078125 151.042969 C 222.667969 150.769531 222.292969 150.460938 221.945312 150.113281 C 221.597656 149.765625 221.289062 149.390625 221.015625 148.980469 C 220.742188 148.574219 220.511719 148.144531 220.324219 147.691406 C 220.136719 147.234375 219.996094 146.769531 219.898438 146.289062 C 219.804688 145.804688 219.753906 145.320312 219.753906 144.828125 C 219.753906 144.339844 219.804688 143.851562 219.898438 143.371094 C 219.996094 142.890625 220.136719 142.421875 220.324219 141.96875 C 220.511719 141.515625 220.742188 141.085938 221.015625 140.675781 C 221.289062 140.269531 221.597656 139.890625 221.945312 139.542969 C 222.292969 139.199219 222.667969 138.886719 223.078125 138.617188 C 223.484375 138.34375 223.914062 138.113281 224.371094 137.925781 C 224.824219 137.738281 225.289062 137.59375 225.769531 137.5 C 226.253906 137.402344 226.738281 137.355469 227.230469 137.355469 C 227.71875 137.355469 228.207031 137.402344 228.6875 137.5 C 229.167969 137.59375 229.636719 137.738281 230.089844 137.925781 C 230.542969 138.113281 230.972656 138.34375 231.382812 138.617188 C 231.789062 138.886719 232.167969 139.199219 232.515625 139.542969 C 232.859375 139.890625 233.171875 140.269531 233.445312 140.675781 C 233.714844 141.085938 233.945312 141.515625 234.132812 141.96875 C 234.320312 142.421875 234.464844 142.890625 234.558594 143.371094 C 234.65625 143.851562 234.703125 144.339844 234.703125 144.828125 Z M 234.703125 144.828125 " fill-opacity="1" fill-rule="nonzero"/><path fill="#3fb83d" d="M 174.207031 213.175781 C 174.207031 218.550781 169.847656 222.902344 164.476562 222.902344 C 159.105469 222.902344 154.746094 218.546875 154.746094 213.175781 C 154.746094 207.800781 159.105469 203.445312 164.476562 203.445312 C 169.847656 203.445312 174.207031 207.796875 174.207031 213.175781 Z M 174.207031 213.175781 " fill-opacity="1" fill-rule="nonzero"/><path fill="#3fb83d" d="M 111.351562 279.136719 C 111.351562 283.582031 107.746094 287.183594 103.304688 287.183594 C 98.867188 287.183594 95.261719 283.578125 95.261719 279.136719 C 95.261719 274.691406 98.863281 271.089844 103.304688 271.089844 C 107.75 271.089844 111.351562 274.691406 111.351562 279.136719 Z M 111.351562 279.136719 " fill-opacity="1" fill-rule="nonzero"/><path fill="#3fb83d" d="M 194.453125 322.667969 C 194.453125 329.332031 189.050781 334.730469 182.390625 334.730469 C 175.726562 334.730469 170.328125 329.328125 170.328125 322.667969 C 170.328125 316.007812 175.726562 310.605469 182.390625 310.605469 C 189.050781 310.605469 194.453125 316.007812 194.453125 322.667969 Z M 194.453125 322.667969 " fill-opacity="1" fill-rule="nonzero"/><path stroke-linecap="butt" transform="matrix(1.768728, 0, 0, 1.768728, -17.940525, 127.447667)" fill="none" stroke-linejoin="miter" d="M 90.007242 46.622479 C 90.685254 46.576101 91.422895 46.679901 92.222375 46.929462 C 93.019647 47.181232 93.65128 47.797406 94.115067 48.7824 C 94.830623 50.306271 94.505973 51.810264 93.141115 53.294382 C 92.306299 54.204287 91.316887 54.948554 90.175089 55.522766 C 85.309746 57.872619 79.982824 58.479958 74.198742 57.349202 C 70.808683 56.660148 68.604592 54.45164 67.582053 50.719262 C 66.932751 48.360575 66.663313 45.993055 66.775947 43.614492 C 66.895207 41.238137 67.109432 39.005336 67.416414 36.916087 C 67.67481 35.169157 67.959707 33.424436 68.264482 31.677506 C 68.571464 29.923951 68.878447 28.192481 69.185429 26.483096 C 69.333399 25.64828 69.472535 24.820089 69.602837 24.002941 C 69.741973 23.176959 69.885526 22.34656 70.033496 21.511744 L 70.090918 21.288685 C 70.126254 21.056792 70.163798 20.818273 70.201343 20.577546 C 70.238888 20.327984 70.219011 20.06738 70.14613 19.797942 C 69.728722 17.708694 70.643045 16.05673 72.889097 14.839842 C 73.306505 14.607949 73.734956 14.39814 74.170032 14.212626 C 74.607316 14.027111 75.053435 13.892392 75.508387 13.808469 L 77.959831 13.474984 C 79.713387 13.243091 81.493444 13.004572 83.293378 12.763845 C 85.104354 12.514283 86.90208 12.350854 88.684346 12.275764 C 88.84115 12.275764 88.995745 12.275764 89.143715 12.275764 C 90.934815 12.275764 92.379179 12.788138 93.474599 13.808469 C 94.468428 14.689664 94.985219 15.776249 95.020555 17.068227 C 95.058099 18.505965 94.514807 19.705185 93.392885 20.661469 C 92.277588 21.608919 90.806722 22.143378 88.975869 22.262637 C 87.796525 22.337726 86.617182 22.355394 85.437839 22.31785 C 84.258496 22.282514 83.081361 22.220676 81.902018 22.136752 L 80.411275 22.08154 C 79.695718 22.043995 79.13034 22.035161 78.710724 22.055037 C 78.293316 22.072705 77.950997 22.216258 77.681559 22.485696 C 77.412121 22.71759 77.257526 23.04224 77.22219 23.461857 C 77.184645 23.879265 77.164768 24.444643 77.164768 25.1602 C 77.164768 25.88459 77.164768 26.608981 77.164768 27.333371 C 77.164768 28.057762 77.164768 28.782153 77.164768 29.506543 L 77.164768 32.359935 L 77.904619 32.236259 C 78.322027 32.16117 78.730601 32.08608 79.13034 32.0132 C 79.527872 31.93811 79.936446 31.840936 80.356062 31.719468 C 81.237257 31.571498 82.105201 31.423528 82.959893 31.275558 C 83.814586 31.116545 84.658236 31.001703 85.49526 30.926614 C 87.619845 30.741099 89.598668 30.855941 91.427312 31.275558 C 93.061608 31.617877 93.933969 32.624956 94.046603 34.296797 C 94.130526 35.244247 93.920718 35.995139 93.419387 36.553892 C 92.926889 37.101602 92.416724 37.510176 91.886682 37.779614 C 90.550535 38.457626 89.254141 38.855157 88.001917 38.976625 C 86.785029 39.089259 85.541639 39.170974 84.269538 39.228395 C 82.997438 39.283608 81.709878 39.347654 80.411275 39.422744 C 79.881233 39.422744 79.33794 39.444829 78.781396 39.491207 C 78.233686 39.528752 77.677142 39.548629 77.109556 39.548629 L 76.539761 39.603841 L 76.539761 40.173636 C 76.539761 40.43424 76.539761 40.708095 76.539761 40.99741 C 76.539761 41.284516 76.539761 41.558371 76.539761 41.818975 C 76.539761 42.616246 76.539761 43.428977 76.539761 44.254959 C 76.539761 45.072107 76.557429 45.880421 76.594973 46.679901 C 76.594973 46.938296 76.678897 47.176815 76.844535 47.388832 C 77.021215 47.594223 77.164768 47.755444 77.277402 47.876912 C 77.434206 47.987337 77.624138 48.113222 77.847197 48.252358 C 78.079091 48.38266 78.326444 48.448915 78.587047 48.448915 C 80.722675 48.289903 83.081361 48.002797 85.660898 47.585389 C 86.005426 47.547844 86.33891 47.481589 86.663561 47.388832 C 86.99042 47.296074 87.306237 47.207734 87.611011 47.123811 C 88.028419 47.013385 88.436993 46.911794 88.836733 46.819037 C 89.236473 46.726279 89.627379 46.660024 90.007242 46.622479 Z M 145.052093 44.785001 C 145.162518 46.810203 144.972587 48.883992 144.48009 51.010785 C 144.173107 52.152583 143.649691 53.049237 142.907632 53.698539 C 142.172199 54.339006 141.291004 54.679116 140.259631 54.716661 C 139.349726 54.751997 138.45528 54.489185 137.571877 53.921598 C 136.699516 53.345177 136.151806 52.450732 135.928747 51.233844 C 135.166812 47.547844 134.632353 43.252296 134.327579 38.349409 C 134.214945 37.013261 134.168566 35.681531 134.188443 34.352009 C 134.206111 33.024696 134.214945 31.710634 134.214945 30.412031 C 134.214945 29.8069 134.223779 29.195143 134.243655 28.572344 C 134.261323 27.940711 134.270157 27.317912 134.270157 26.706155 C 134.270157 26.361628 134.243655 25.999433 134.188443 25.619569 C 134.131021 25.239706 134.007345 24.839966 133.810788 24.422558 L 133.240993 23.223338 L 132.44593 24.881928 C 132.373049 25.067442 132.293543 25.257374 132.20962 25.451723 C 132.13453 25.637237 132.06165 25.829377 131.98656 26.023726 C 131.717122 26.785661 131.447684 27.536554 131.178246 28.280821 C 130.919851 29.02288 130.65483 29.769356 130.385392 30.522457 C 129.930439 31.823268 129.484321 33.117454 129.047036 34.409431 C 128.61196 35.699199 128.148174 36.9713 127.655676 38.225732 L 127.600464 38.462043 C 127.331026 39.186433 127.052754 39.919658 126.763439 40.661717 C 126.485167 41.394941 126.156099 42.106081 125.774028 42.792927 C 124.669774 44.621571 123.220992 45.573438 121.429892 45.648527 C 119.682963 45.723617 118.203262 44.924137 116.986375 43.252296 C 116.299529 42.342391 115.701023 41.372856 115.188649 40.341483 C 114.678484 39.31011 114.190404 38.265485 113.726617 37.20761 C 113.198783 36.065812 112.673159 34.904136 112.154159 33.727002 C 111.641785 32.547658 111.140454 31.368315 110.647957 30.188972 C 110.427106 29.612551 110.179753 29.031714 109.910315 28.446459 C 109.640877 27.852371 109.395733 27.253865 109.172674 26.650942 C 109.051206 26.381504 108.885568 26.098815 108.671342 25.800667 C 108.465951 25.493684 108.192096 25.169034 107.849777 24.826715 L 106.999502 24.086865 L 106.650558 26.301998 C 106.615221 26.681861 106.568843 27.072767 106.511422 27.472507 C 106.456209 27.872247 106.40983 28.260945 106.372286 28.643017 C 106.224315 30.089589 106.071928 31.529536 105.912916 32.960649 C 105.764946 34.38072 105.612559 35.81625 105.453546 37.262823 C 105.268032 39.279191 105.069266 41.284516 104.855041 43.281007 C 104.649649 45.277498 104.433216 47.282823 104.199114 49.296982 C 104.163778 49.983828 104.097522 50.66184 104.004765 51.331018 C 103.912008 51.991362 103.768455 52.627412 103.574106 53.239169 C 103.275957 54.418512 102.686286 55.352711 101.805091 56.039557 C 100.930522 56.717569 99.943319 57.037803 98.836857 57.000258 C 97.695058 56.962713 96.716689 56.554139 95.899541 55.774536 C 95.082393 54.994933 94.59873 54.034232 94.45076 52.890225 C 94.143777 50.533747 94.143777 48.38266 94.45076 46.441382 C 95.815618 38.038009 97.357156 29.48225 99.075375 20.771894 C 99.455239 18.757735 100.155336 16.798789 101.177875 14.895055 C 102.134159 13.223214 103.393008 12.253679 104.952215 11.984241 C 105.175274 11.946697 105.402751 11.929029 105.634644 11.929029 C 106.889076 11.929029 108.06842 12.425943 109.172674 13.417563 C 110.917395 15.016523 112.761499 17.295703 114.702777 20.257312 C 115.314534 21.167217 115.886538 22.127918 116.414371 23.139415 C 116.944413 24.15312 117.49654 25.169034 118.07296 26.191573 C 118.29602 26.681861 118.53233 27.169942 118.781891 27.653605 C 119.033661 28.126226 119.289848 28.609889 119.548244 29.102386 L 120.17546 30.244185 L 120.690042 29.044965 C 120.8866 28.590012 121.067697 28.13506 121.233335 27.680107 C 121.401182 27.225154 121.582279 26.765785 121.776628 26.301998 C 122.1587 25.281667 122.538563 24.296673 122.920635 23.349223 C 123.300499 22.392939 123.700239 21.441072 124.117647 20.493622 C 125.065096 18.39554 126.206895 16.246662 127.543042 14.044779 C 128.18351 12.940525 129.020534 11.913569 130.051907 10.968328 C 131.834173 9.322989 133.676069 8.691356 135.579803 9.073428 C 137.483536 9.453291 138.927901 10.767353 139.912895 13.015615 C 141.66645 16.858418 142.828126 21.613336 143.393504 27.278159 L 143.742448 30.758767 C 144.011886 33.042364 144.25703 35.374549 144.48009 37.750903 C 144.711983 40.127258 144.901915 42.472693 145.052093 44.785001 Z M 145.052093 44.785001 " stroke="#ffffff" stroke-width="7.916881" stroke-opacity="1" stroke-miterlimit="4"/><g fill="#3fb83d" fill-opacity="1"><g transform="translate(96.446437, 228.265169)"><g><path d="M 44.796875 -18.359375 C 46.015625 -18.429688 47.328125 -18.25 48.734375 -17.8125 C 50.148438 -17.375 51.257812 -16.28125 52.0625 -14.53125 C 53.34375 -11.84375 52.773438 -9.1875 50.359375 -6.5625 C 48.867188 -4.945312 47.117188 -3.632812 45.109375 -2.625 C 36.492188 1.539062 27.070312 2.617188 16.84375 0.609375 C 10.863281 -0.597656 6.960938 -4.5 5.140625 -11.09375 C 4.003906 -15.269531 3.535156 -19.457031 3.734375 -23.65625 C 3.929688 -27.863281 4.300781 -31.816406 4.84375 -35.515625 C 5.3125 -38.609375 5.816406 -41.703125 6.359375 -44.796875 C 6.898438 -47.890625 7.4375 -50.953125 7.96875 -53.984375 C 8.238281 -55.460938 8.488281 -56.925781 8.71875 -58.375 C 8.957031 -59.820312 9.210938 -61.285156 9.484375 -62.765625 L 9.59375 -63.171875 C 9.65625 -63.566406 9.71875 -63.984375 9.78125 -64.421875 C 9.851562 -64.859375 9.820312 -65.316406 9.6875 -65.796875 C 8.945312 -69.492188 10.5625 -72.414062 14.53125 -74.5625 C 15.269531 -74.96875 16.023438 -75.335938 16.796875 -75.671875 C 17.578125 -76.015625 18.367188 -76.253906 19.171875 -76.390625 L 23.515625 -76.984375 C 26.609375 -77.390625 29.75 -77.8125 32.9375 -78.25 C 36.132812 -78.6875 39.316406 -78.972656 42.484375 -79.109375 C 42.753906 -79.109375 43.019531 -79.109375 43.28125 -79.109375 C 46.445312 -79.109375 49.003906 -78.203125 50.953125 -76.390625 C 52.703125 -74.835938 53.613281 -72.921875 53.6875 -70.640625 C 53.75 -68.078125 52.785156 -65.953125 50.796875 -64.265625 C 48.816406 -62.585938 46.210938 -61.648438 42.984375 -61.453125 C 40.898438 -61.316406 38.816406 -61.28125 36.734375 -61.34375 C 34.648438 -61.414062 32.5625 -61.519531 30.46875 -61.65625 L 27.84375 -61.75 C 26.570312 -61.820312 25.566406 -61.835938 24.828125 -61.796875 C 24.085938 -61.765625 23.476562 -61.515625 23 -61.046875 C 22.53125 -60.640625 22.257812 -60.066406 22.1875 -59.328125 C 22.125 -58.585938 22.09375 -57.582031 22.09375 -56.3125 C 22.09375 -55.03125 22.09375 -53.75 22.09375 -52.46875 C 22.09375 -51.1875 22.09375 -49.910156 22.09375 -48.640625 L 22.09375 -43.59375 L 23.40625 -43.796875 C 24.144531 -43.929688 24.867188 -44.066406 25.578125 -44.203125 C 26.285156 -44.335938 27.007812 -44.503906 27.75 -44.703125 C 29.289062 -44.972656 30.816406 -45.238281 32.328125 -45.5 C 33.847656 -45.769531 35.347656 -45.972656 36.828125 -46.109375 C 40.597656 -46.453125 44.097656 -46.253906 47.328125 -45.515625 C 50.210938 -44.898438 51.757812 -43.113281 51.96875 -40.15625 C 52.101562 -38.476562 51.734375 -37.148438 50.859375 -36.171875 C 49.984375 -35.203125 49.070312 -34.476562 48.125 -34 C 45.769531 -32.789062 43.484375 -32.085938 41.265625 -31.890625 C 39.117188 -31.679688 36.914062 -31.523438 34.65625 -31.421875 C 32.40625 -31.328125 30.132812 -31.210938 27.84375 -31.078125 C 26.90625 -31.078125 25.945312 -31.039062 24.96875 -30.96875 C 24 -30.90625 23.007812 -30.875 22 -30.875 L 20.984375 -30.78125 L 20.984375 -29.765625 C 20.984375 -29.296875 20.984375 -28.804688 20.984375 -28.296875 C 20.984375 -27.796875 20.984375 -27.3125 20.984375 -26.84375 C 20.984375 -25.425781 20.984375 -23.992188 20.984375 -22.546875 C 20.984375 -21.109375 21.019531 -19.679688 21.09375 -18.265625 C 21.09375 -17.796875 21.242188 -17.375 21.546875 -17 C 21.847656 -16.632812 22.097656 -16.347656 22.296875 -16.140625 C 22.566406 -15.941406 22.90625 -15.722656 23.3125 -15.484375 C 23.71875 -15.253906 24.15625 -15.140625 24.625 -15.140625 C 28.382812 -15.410156 32.554688 -15.914062 37.140625 -16.65625 C 37.742188 -16.71875 38.328125 -16.832031 38.890625 -17 C 39.460938 -17.164062 40.019531 -17.316406 40.5625 -17.453125 C 41.300781 -17.660156 42.023438 -17.847656 42.734375 -18.015625 C 43.441406 -18.179688 44.128906 -18.296875 44.796875 -18.359375 Z M 44.796875 -18.359375 "/></g></g></g><g fill="#3fb83d" fill-opacity="1"><g transform="translate(144.977736, 228.265169)"><g><path d="M 93.640625 -21.59375 C 93.835938 -18.03125 93.5 -14.363281 92.625 -10.59375 C 92.09375 -8.570312 91.171875 -6.988281 89.859375 -5.84375 C 88.546875 -4.707031 86.984375 -4.101562 85.171875 -4.03125 C 83.554688 -3.96875 81.972656 -4.441406 80.421875 -5.453125 C 78.867188 -6.460938 77.894531 -8.039062 77.5 -10.1875 C 76.15625 -16.71875 75.210938 -24.320312 74.671875 -33 C 74.472656 -35.351562 74.390625 -37.707031 74.421875 -40.0625 C 74.453125 -42.414062 74.46875 -44.734375 74.46875 -47.015625 C 74.46875 -48.097656 74.484375 -49.191406 74.515625 -50.296875 C 74.546875 -51.410156 74.5625 -52.503906 74.5625 -53.578125 C 74.5625 -54.179688 74.507812 -54.816406 74.40625 -55.484375 C 74.3125 -56.160156 74.097656 -56.875 73.765625 -57.625 L 72.75 -59.734375 L 71.34375 -56.8125 C 71.207031 -56.476562 71.070312 -56.140625 70.9375 -55.796875 C 70.800781 -55.460938 70.664062 -55.128906 70.53125 -54.796875 C 70.0625 -53.453125 69.59375 -52.125 69.125 -50.8125 C 68.65625 -49.5 68.179688 -48.171875 67.703125 -46.828125 C 66.898438 -44.535156 66.109375 -42.242188 65.328125 -39.953125 C 64.554688 -37.671875 63.734375 -35.421875 62.859375 -33.203125 L 62.765625 -32.796875 C 62.296875 -31.515625 61.804688 -30.21875 61.296875 -28.90625 C 60.796875 -27.59375 60.207031 -26.332031 59.53125 -25.125 C 57.582031 -21.894531 55.023438 -20.210938 51.859375 -20.078125 C 48.765625 -19.941406 46.144531 -21.351562 44 -24.3125 C 42.78125 -25.925781 41.71875 -27.640625 40.8125 -29.453125 C 39.90625 -31.273438 39.050781 -33.128906 38.25 -35.015625 C 37.300781 -37.035156 36.375 -39.085938 35.46875 -41.171875 C 34.5625 -43.253906 33.671875 -45.335938 32.796875 -47.421875 C 32.390625 -48.429688 31.953125 -49.457031 31.484375 -50.5 C 31.015625 -51.539062 30.578125 -52.601562 30.171875 -53.6875 C 29.972656 -54.15625 29.6875 -54.65625 29.3125 -55.1875 C 28.945312 -55.726562 28.457031 -56.300781 27.84375 -56.90625 L 26.34375 -58.21875 L 25.734375 -54.28125 C 25.660156 -53.613281 25.570312 -52.925781 25.46875 -52.21875 C 25.375 -51.507812 25.289062 -50.820312 25.21875 -50.15625 C 24.957031 -47.59375 24.691406 -45.050781 24.421875 -42.53125 C 24.148438 -40.007812 23.878906 -37.46875 23.609375 -34.90625 C 23.273438 -31.34375 22.921875 -27.796875 22.546875 -24.265625 C 22.179688 -20.734375 21.796875 -17.1875 21.390625 -13.625 C 21.328125 -12.414062 21.207031 -11.222656 21.03125 -10.046875 C 20.863281 -8.867188 20.613281 -7.738281 20.28125 -6.65625 C 19.738281 -4.570312 18.691406 -2.925781 17.140625 -1.71875 C 15.597656 -0.507812 13.851562 0.0625 11.90625 0 C 9.882812 -0.0625 8.148438 -0.78125 6.703125 -2.15625 C 5.265625 -3.539062 4.410156 -5.242188 4.140625 -7.265625 C 3.597656 -11.429688 3.597656 -15.234375 4.140625 -18.671875 C 6.554688 -33.535156 9.28125 -48.671875 12.3125 -64.078125 C 12.976562 -67.640625 14.222656 -71.101562 16.046875 -74.46875 C 17.722656 -77.425781 19.941406 -79.140625 22.703125 -79.609375 C 23.109375 -79.679688 23.515625 -79.71875 23.921875 -79.71875 C 26.140625 -79.71875 28.222656 -78.84375 30.171875 -77.09375 C 33.265625 -74.269531 36.523438 -70.234375 39.953125 -64.984375 C 41.035156 -63.367188 42.046875 -61.671875 42.984375 -59.890625 C 43.929688 -58.109375 44.90625 -56.304688 45.90625 -54.484375 C 46.3125 -53.609375 46.734375 -52.75 47.171875 -51.90625 C 47.609375 -51.070312 48.0625 -50.21875 48.53125 -49.34375 L 49.640625 -47.328125 L 50.546875 -49.4375 C 50.890625 -50.25 51.210938 -51.054688 51.515625 -51.859375 C 51.816406 -52.671875 52.132812 -53.476562 52.46875 -54.28125 C 53.144531 -56.101562 53.816406 -57.851562 54.484375 -59.53125 C 55.160156 -61.21875 55.867188 -62.898438 56.609375 -64.578125 C 58.285156 -68.273438 60.300781 -72.078125 62.65625 -75.984375 C 63.800781 -77.929688 65.285156 -79.75 67.109375 -81.4375 C 70.265625 -84.320312 73.523438 -85.429688 76.890625 -84.765625 C 80.253906 -84.085938 82.8125 -81.765625 84.5625 -77.796875 C 87.65625 -71.003906 89.707031 -62.597656 90.71875 -52.578125 L 91.3125 -46.421875 C 91.789062 -42.378906 92.226562 -38.253906 92.625 -34.046875 C 93.03125 -29.847656 93.367188 -25.695312 93.640625 -21.59375 Z M 93.640625 -21.59375 "/></g></g></g><path stroke-linecap="butt" transform="matrix(0.511045, 0, 0, 0.511045, 84.576561, 227.135596)" fill="none" stroke-linejoin="miter" d="M 78.495695 44.908636 C 79.596381 44.946854 80.483044 45.260244 81.140398 45.856448 C 81.805395 46.445009 82.241083 47.163512 82.447462 48.019601 C 82.661484 48.868046 82.661484 49.724135 82.447462 50.580223 C 82.241083 51.436312 81.805395 52.139528 81.140398 52.697514 C 80.483044 53.240213 79.596381 53.477167 78.495695 53.408374 C 75.912142 53.331937 73.328588 53.347224 70.737391 53.461879 C 68.146194 53.576534 65.554997 53.836418 62.979087 54.256819 C 62.176504 54.417335 61.335703 54.348543 60.456683 54.058084 C 59.585307 53.775269 58.851517 53.309006 58.270599 52.66694 C 57.682038 52.01723 57.468016 51.176428 57.613246 50.144535 C 58.262956 44.862774 58.973815 39.596299 59.745824 34.352756 C 60.525476 29.109213 61.373921 23.873313 62.291159 18.652701 C 62.405814 18.018278 62.635123 17.445004 62.979087 16.95581 C 63.284833 16.420755 63.720521 15.985067 64.286151 15.648746 C 64.859425 15.304782 65.570284 15.106047 66.403442 15.060185 C 70.508082 14.914956 74.612722 14.991393 78.717361 15.297139 C 79.818047 15.373575 80.70471 15.725183 81.377351 16.359606 C 82.042349 16.978741 82.478037 17.720175 82.684415 18.583908 C 82.898437 19.439996 82.898437 20.288442 82.684415 21.121599 C 82.478037 21.954757 82.042349 22.642685 81.377351 23.170097 C 80.70471 23.697509 79.818047 23.926819 78.717361 23.850382 C 75.904498 23.666934 73.030486 23.575211 70.110612 23.575211 C 69.911877 24.675896 69.720786 25.784225 69.522051 26.884911 C 69.338604 27.985596 69.170443 29.086282 69.01757 30.186967 C 70.584518 30.225186 72.082674 30.301622 73.534967 30.408633 C 74.673871 30.56915 75.675189 31.012481 76.531278 31.730984 C 77.379723 32.449487 77.807767 33.435518 77.807767 34.689077 C 77.807767 35.40758 77.609032 36.118439 77.211562 36.806368 C 76.814093 37.494296 76.286681 38.044639 75.636971 38.465039 C 74.994904 38.877796 74.291688 39.0536 73.534967 38.977164 C 71.59348 38.778429 69.651993 38.701993 67.710506 38.740211 C 67.565277 39.810322 67.412404 40.888076 67.251887 41.973474 C 67.106658 43.051229 66.953785 44.136627 66.793268 45.244956 C 68.734755 45.061509 70.676242 44.931567 72.617729 44.85513 C 74.559216 44.77105 76.51599 44.786337 78.495695 44.908636 Z M 112.441142 32.067305 C 112.548153 35.835624 112.639877 39.626874 112.716313 43.433411 C 112.79275 47.232305 112.892117 51.031199 113.006772 54.830092 C 113.04499 55.930778 112.777462 56.817441 112.204189 57.474795 C 111.638558 58.139793 110.935343 58.583124 110.102185 58.797146 C 109.261384 59.011169 108.412939 59.011169 107.549206 58.797146 C 106.693117 58.583124 105.974614 58.139793 105.37841 57.474795 C 104.789849 56.817441 104.484103 55.930778 104.445885 54.830092 C 104.407666 53.683545 104.377092 52.559929 104.361804 51.443956 C 104.338873 50.320339 104.315943 49.189079 104.277724 48.042532 L 95.724481 47.698568 C 95.418735 49.143217 95.128276 50.580223 94.860748 52.01723 C 94.593221 53.431305 94.325693 54.868311 94.065809 56.320604 C 93.874718 57.42129 93.43903 58.223873 92.774032 58.713066 C 92.116678 59.20226 91.34467 59.439213 90.473294 59.423926 C 89.601918 59.408638 88.776404 59.179329 87.996751 58.743641 C 87.217099 58.307953 86.605607 57.688817 86.154632 56.886234 C 85.718944 56.091295 85.596646 55.135838 85.79538 54.035153 C 86.483309 50.312696 87.255317 46.620813 88.103762 42.974792 C 88.959851 39.313484 90.167548 35.751544 91.726852 32.288971 C 92.491217 30.584437 93.461961 28.742318 94.639083 26.762612 C 95.816205 24.782907 97.153843 22.971362 98.651998 21.312691 C 100.157797 19.661662 101.824113 18.453966 103.650945 17.697244 C 105.355479 16.971098 106.746623 16.833512 107.816734 17.292131 C 108.886845 17.743106 109.720003 18.560977 110.323851 19.745742 C 110.935343 20.922864 111.378674 22.283434 111.661489 23.819807 C 111.944304 25.363825 112.135396 26.877267 112.227119 28.360135 C 112.334131 29.850647 112.402923 31.081274 112.441142 32.067305 Z M 98.063437 39.252335 C 99.087686 39.290554 100.089004 39.328772 101.075035 39.36699 C 102.06871 39.405208 103.062384 39.443427 104.056058 39.489288 C 104.01784 38.228086 103.987266 36.982171 103.956691 35.7439 C 103.941404 34.513273 103.910829 33.282645 103.872611 32.067305 C 103.834393 31.578111 103.819105 31.058343 103.819105 30.508001 C 103.819105 29.950014 103.819105 29.392028 103.819105 28.826398 C 103.177039 29.575475 102.626696 30.293978 102.160433 30.981907 C 101.411356 32.120811 100.715784 33.31322 100.081361 34.551491 C 99.454582 35.782119 98.888952 37.028033 98.399758 38.296879 C 98.36154 38.442108 98.315678 38.602625 98.262172 38.778429 C 98.201023 38.946589 98.139874 39.107106 98.063437 39.252335 Z M 134.340197 32.357764 C 136.472775 33.802413 138.146734 35.682751 139.385005 37.998777 C 140.623276 40.322446 141.104826 42.798989 140.844942 45.428404 C 140.577415 47.698568 139.797762 49.662986 138.505986 51.30637 C 137.214209 52.934467 135.631973 54.210957 133.743992 55.120551 C 131.856011 56.030145 129.861018 56.534626 127.743727 56.641637 C 125.63408 56.733361 123.608513 56.37411 121.667026 55.57917 C 119.740827 54.784231 118.105086 53.48481 116.767447 51.696196 C 116.087162 50.817177 115.804347 49.976375 115.919002 49.158505 C 116.026013 48.340634 116.377621 47.629775 116.958538 47.025927 C 117.554743 46.414435 118.288533 45.98639 119.159909 45.73415 C 120.031285 45.481909 120.917949 45.474266 121.804612 45.703575 C 122.706563 45.932885 123.486215 46.490871 124.135925 47.362247 C 124.434027 47.782648 124.999657 48.019601 125.832815 48.073107 C 126.68126 48.126612 127.522062 48.088394 128.355219 47.958452 C 129.188377 47.820866 129.776938 47.675637 130.120902 47.530407 C 130.923486 47.148225 131.51969 46.582595 131.91716 45.841161 C 132.322273 45.099727 132.459859 44.2895 132.337561 43.418124 C 132.222906 42.355657 131.848367 41.476637 131.198657 40.803996 C 130.55659 40.116068 129.784582 39.512219 128.882631 39.007739 C 127.988324 38.48797 127.094017 37.991133 126.184423 37.517227 C 125.274829 37.043321 124.472246 36.523552 123.784317 35.957922 C 121.881048 34.27632 120.719214 32.457131 120.306457 30.492713 C 119.886056 28.535939 120.031285 26.579165 120.734501 24.630034 C 121.437717 22.67326 122.530759 20.89229 124.005983 19.294767 C 125.496495 17.697244 127.185741 16.458973 129.08901 15.579954 C 130.120902 15.083116 131.076359 14.953174 131.947735 15.190127 C 132.819111 15.411793 133.568188 15.839838 134.187324 16.466617 C 134.821747 17.093396 135.249791 17.827186 135.471457 18.667988 C 135.700766 19.508789 135.670192 20.311372 135.356802 21.091025 C 135.066343 21.870677 134.416633 22.489812 133.422959 22.948431 C 132.780892 23.23889 132.031815 23.659291 131.168082 24.20199 C 130.311994 24.729402 129.608778 25.363825 129.066079 26.105259 C 128.515736 26.846693 128.408725 27.67985 128.745045 28.589445 C 128.936137 29.200937 129.387112 29.720705 130.082684 30.164036 C 130.7859 30.599724 131.542621 30.98955 132.337561 31.333515 C 133.1325 31.677479 133.805141 32.013799 134.340197 32.357764 Z M 164.005199 17.972416 C 164.119854 16.879374 164.502037 16.05386 165.167034 15.511161 C 165.832032 14.953174 166.596397 14.632141 167.444842 14.563348 C 168.308574 14.479268 169.149375 14.624497 169.967246 15.00668 C 170.785116 15.388862 171.434827 15.954492 171.901089 16.718857 C 172.374995 17.483222 172.543156 18.392816 172.390283 19.462927 C 172.084537 21.931826 171.801722 24.545954 171.52655 27.305312 C 171.266666 30.064669 170.87684 32.83167 170.357072 35.606315 C 169.844947 38.380959 169.103514 41.025662 168.13277 43.548066 C 167.162027 46.055183 165.847319 48.302416 164.17336 50.297408 C 162.507044 52.300045 160.351535 53.905211 157.72212 55.120551 C 156.743733 55.571526 155.841782 55.670894 155.023912 55.41101 C 154.206041 55.143482 153.548687 54.654289 153.044206 53.951073 C 152.555013 53.240213 152.264554 52.445274 152.165187 51.550967 C 152.073463 50.664304 152.226336 49.808215 152.631449 48.990344 C 153.028919 48.16483 153.716848 47.545695 154.702878 47.125294 C 155.994655 46.521446 157.049479 45.711219 157.867349 44.68697 C 158.692863 43.655077 159.350217 42.516174 159.839411 41.262615 C 158.280106 41.790027 156.697871 42.042267 155.077417 42.02698 C 153.464607 42.011693 151.874728 41.598936 150.315424 40.803996 C 148.266926 39.772103 146.730552 38.327454 145.72159 36.470047 C 144.704985 34.604997 144.10878 32.564142 143.925333 30.33984 C 143.734242 28.115538 143.841253 25.883593 144.246366 23.659291 C 144.643836 21.427345 145.240041 19.424709 146.042624 17.636095 C 146.455381 16.611846 147.066873 15.90863 147.861812 15.549379 C 148.664395 15.190127 149.48991 15.083116 150.345998 15.243633 C 151.194443 15.388862 151.966452 15.755758 152.639093 16.329031 C 153.327021 16.894661 153.800928 17.597877 154.045524 18.431035 C 154.297765 19.271836 154.213685 20.204361 153.800928 21.22861 C 153.495182 21.870677 153.181792 22.742053 152.876046 23.850382 C 152.5703 24.958711 152.356278 26.112902 152.226336 27.335886 C 152.096394 28.551226 152.142256 29.674843 152.363922 30.706735 C 152.593231 31.723341 153.128287 32.502993 153.961444 33.045692 C 154.725809 33.573104 155.551323 33.741264 156.44563 33.557817 C 157.332294 33.366725 158.188382 32.953968 159.006253 32.334833 C 159.824123 31.70041 160.557914 30.98955 161.207624 30.186967 C 161.857334 29.392028 162.369459 28.665881 162.751641 28.016171 C 162.973307 26.342212 163.179685 24.675896 163.363133 23.001937 C 163.561868 21.327978 163.77589 19.654019 164.005199 17.972416 Z M 229.67179 36.638207 C 229.710008 39.833253 229.580066 43.035942 229.289608 46.246274 C 229.006793 49.456607 228.716334 52.66694 228.418232 55.854341 C 228.295933 56.924452 227.921394 57.788185 227.286972 58.445539 C 226.667836 59.11818 225.918758 59.553868 225.047382 59.760246 C 224.176006 59.974268 223.312274 59.974268 222.471473 59.760246 C 221.630671 59.553868 220.95803 59.125823 220.445905 58.476113 C 219.941425 57.834047 219.735046 56.962671 219.849701 55.854341 C 220.117229 53.347224 220.400044 50.763671 220.698146 48.103681 C 221.003892 45.436048 221.202627 42.776058 221.301994 40.116068 C 221.401362 37.456078 221.225558 34.864881 220.766939 32.357764 C 220.698146 31.899145 220.568204 31.440526 220.3924 30.981907 C 220.22424 30.523288 220.124872 30.072313 220.086654 29.613694 C 219.666253 30.110531 219.199991 30.599724 218.680222 31.081274 C 218.168098 31.55518 217.778272 31.998512 217.510744 32.418913 C 216.639368 33.741264 215.966727 35.124765 215.492821 36.554127 C 215.018915 37.975846 214.644376 39.443427 214.376848 40.972156 C 214.223975 41.912325 213.826505 42.638472 213.176795 43.142953 C 212.527085 43.632146 211.785651 43.914961 210.952493 43.991398 C 210.111692 44.067834 209.293821 43.95318 208.498882 43.655077 C 207.696299 43.349331 207.054232 42.875425 206.565038 42.233358 C 206.068201 41.583648 205.87711 40.781065 205.991765 39.825609 C 206.068201 38.80136 206.12935 37.769467 206.182856 36.722287 C 206.244005 35.667464 206.251649 34.635571 206.213431 33.611322 C 206.213431 33.267358 206.221074 32.785808 206.244005 32.166672 C 206.259292 31.53225 206.244005 30.920758 206.182856 30.316909 C 206.12935 29.697774 205.968834 29.239155 205.701306 28.933409 C 205.62487 28.856972 205.609582 28.780536 205.640157 28.696456 C 205.609582 28.696456 205.586651 28.696456 205.586651 28.696456 C 205.586651 28.696456 205.571364 28.696456 205.533146 28.696456 C 205.189182 28.780536 204.852861 29.116856 204.531828 29.713061 C 204.210794 30.301622 203.973841 30.706735 203.820968 30.928401 C 203.400568 31.61633 203.026029 32.327189 202.704996 33.068623 C 202.391606 33.817701 202.093504 34.543847 201.825976 35.254707 C 200.572417 38.686705 199.754547 42.19514 199.372365 45.787655 C 198.997826 49.380171 198.69208 52.980329 198.455127 56.595775 C 198.37869 57.704105 198.034726 58.575481 197.423234 59.217547 C 196.819386 59.867257 196.093239 60.302945 195.23715 60.539898 C 194.381062 60.769208 193.532616 60.769208 192.691815 60.539898 C 191.851014 60.302945 191.163085 59.867257 190.612742 59.217547 C 190.070043 58.575481 189.83309 57.704105 189.901883 56.595775 C 190.092974 53.599465 190.31464 50.603154 190.589812 47.629775 C 190.857339 44.633464 191.308315 41.675372 191.950381 38.740211 C 192.332564 36.959241 192.837044 35.086546 193.45618 33.129772 C 194.090603 31.165354 194.870255 29.300304 195.795137 27.51169 C 196.735306 25.723076 197.866566 24.163772 199.196561 22.833777 C 200.457763 21.610793 201.932987 20.777635 203.622233 20.341947 C 205.31148 19.906259 206.970152 19.944477 208.582962 20.464245 C 210.195772 20.97637 211.541054 22.015906 212.603521 23.575211 C 212.64174 23.682222 212.702889 23.796877 212.771682 23.919175 C 212.848118 24.03383 212.909267 24.125553 212.955129 24.20199 C 214.048171 22.910213 215.255868 21.870677 216.562932 21.091025 C 217.885283 20.311372 219.238209 19.959765 220.64464 20.036201 C 222.058715 20.104994 223.503365 20.792922 224.986233 22.084699 C 226.316228 23.261821 227.302259 24.668253 227.944325 26.303993 C 228.594036 27.939734 229.029724 29.651912 229.266677 31.440526 C 229.495986 33.236783 229.633572 34.964248 229.67179 36.638207 Z M 253.512332 44.969785 C 254.613018 45.00036 255.499681 45.329036 256.157035 45.940528 C 256.822032 46.544377 257.25772 47.270523 257.464099 48.126612 C 257.678121 48.982701 257.678121 49.823502 257.464099 50.664304 C 257.25772 51.497461 256.822032 52.193033 256.157035 52.75102 C 255.499681 53.301363 254.613018 53.553603 253.512332 53.515385 C 250.928779 53.408374 248.345225 53.423661 245.754028 53.561247 C 243.162831 53.691189 240.571634 53.96636 237.995724 54.379117 C 237.193141 54.493772 236.35234 54.402048 235.47332 54.119233 C 234.601944 53.828774 233.868154 53.362512 233.287236 52.720445 C 232.698675 52.070735 232.484653 51.237577 232.629882 50.213328 C 233.279593 44.962141 233.990452 39.710954 234.762461 34.467411 C 235.542113 29.216224 236.390558 23.97268 237.307796 18.721493 C 237.42245 18.071783 237.65176 17.52144 237.995724 17.070465 C 238.30147 16.527766 238.737158 16.084434 239.302788 15.732827 C 239.876062 15.365931 240.586921 15.167197 241.420079 15.128978 C 245.524719 15.014324 249.629358 15.083116 253.733998 15.358288 C 254.834683 15.427081 255.721347 15.778688 256.393988 16.413111 C 257.058985 17.032247 257.494673 17.781325 257.701052 18.645057 C 257.915074 19.493502 257.915074 20.341947 257.701052 21.175105 C 257.494673 22.015906 257.058985 22.696191 256.393988 23.23889 C 255.721347 23.766302 254.834683 23.987968 253.733998 23.903888 C 250.921135 23.72044 248.047123 23.628716 245.127249 23.628716 C 244.928514 24.729402 244.737423 25.837731 244.538688 26.94606 C 244.35524 28.039102 244.18708 29.139787 244.034207 30.240473 C 245.601155 30.278691 247.09931 30.370415 248.551604 30.523288 C 249.690507 30.645586 250.691826 31.073631 251.547914 31.815065 C 252.396359 32.548855 252.824404 33.550173 252.824404 34.811375 C 252.824404 35.529878 252.625669 36.22545 252.228199 36.913379 C 251.830729 37.601307 251.303317 38.15165 250.653607 38.57205 C 250.011541 38.992451 249.308325 39.160611 248.551604 39.091819 C 246.610117 38.893084 244.66863 38.793716 242.727143 38.793716 C 242.581914 39.863827 242.429041 40.949225 242.268524 42.057555 C 242.123295 43.15824 241.970422 44.243638 241.809905 45.298462 C 243.751392 45.115014 245.692879 44.992716 247.634366 44.93921 C 249.568209 44.885705 251.532627 44.893348 253.512332 44.969785 Z M 287.457778 32.067305 C 287.564789 35.835624 287.656513 39.626874 287.73295 43.433411 C 287.809386 47.232305 287.908754 51.031199 288.023408 54.830092 C 288.061627 55.930778 287.794099 56.817441 287.220825 57.474795 C 286.655195 58.139793 285.951979 58.583124 285.118822 58.797146 C 284.27802 59.011169 283.429575 59.011169 282.565843 58.797146 C 281.709754 58.583124 280.991251 58.139793 280.395046 57.474795 C 279.806486 56.817441 279.50074 55.930778 279.462521 54.830092 C 279.424303 53.683545 279.393728 52.559929 279.378441 51.443956 C 279.35551 50.320339 279.332579 49.189079 279.294361 48.042532 L 270.741117 47.698568 C 270.435372 49.143217 270.144913 50.580223 269.877385 52.01723 C 269.609857 53.431305 269.34233 54.868311 269.082446 56.320604 C 268.891354 57.42129 268.455666 58.223873 267.790669 58.713066 C 267.133315 59.20226 266.361306 59.439213 265.48993 59.423926 C 264.618554 59.408638 263.79304 59.179329 263.013388 58.743641 C 262.233736 58.307953 261.622244 57.688817 261.171269 56.886234 C 260.735581 56.091295 260.613282 55.135838 260.812017 54.035153 C 261.499946 50.312696 262.271954 46.620813 263.120399 42.974792 C 263.976488 39.313484 265.184184 35.751544 266.743489 32.288971 C 267.507854 30.584437 268.478597 28.742318 269.655719 26.762612 C 270.832841 24.782907 272.17048 22.971362 273.668635 21.312691 C 275.174434 19.661662 276.84075 18.453966 278.667582 17.697244 C 280.372116 16.971098 281.76326 16.833512 282.833371 17.292131 C 283.895838 17.743106 284.736639 18.560977 285.340488 19.745742 C 285.951979 20.922864 286.395311 22.283434 286.678126 23.819807 C 286.960941 25.363825 287.152032 26.877267 287.243756 28.360135 C 287.350767 29.850647 287.41956 31.081274 287.457778 32.067305 Z M 273.080074 39.252335 C 274.104323 39.290554 275.105641 39.328772 276.091672 39.36699 C 277.085346 39.405208 278.079021 39.443427 279.072695 39.489288 C 279.034477 38.228086 279.003902 36.982171 278.973328 35.7439 C 278.95804 34.513273 278.927466 33.282645 278.889248 32.067305 C 278.851029 31.578111 278.835742 31.058343 278.835742 30.508001 C 278.835742 29.950014 278.835742 29.392028 278.835742 28.826398 C 278.193676 29.575475 277.643333 30.293978 277.17707 30.981907 C 276.427993 32.120811 275.73242 33.31322 275.097998 34.551491 C 274.471218 35.782119 273.905588 37.028033 273.416395 38.296879 C 273.378176 38.442108 273.332315 38.602625 273.278809 38.778429 C 273.21766 38.946589 273.156511 39.107106 273.080074 39.252335 Z M 313.232164 38.57205 C 314.332849 38.495614 315.211869 38.71728 315.853935 39.229404 C 316.503646 39.741529 316.939334 40.41417 317.176287 41.262615 C 317.405596 42.095773 317.405596 42.951862 317.176287 43.823238 C 316.939334 44.694614 316.488358 45.451335 315.823361 46.078114 C 315.166007 46.704893 314.302275 47.048858 313.232164 47.125294 C 310.342864 47.354603 307.499427 47.736786 304.709495 48.256554 C 301.911919 48.761035 299.129631 49.418389 296.347342 50.213328 C 295.552403 50.442638 294.711602 50.396776 293.832582 50.075743 C 292.953562 49.754709 292.235059 49.234941 291.669429 48.531725 C 291.103799 47.82851 290.859202 47.002996 290.935639 46.055183 C 291.386614 41.598936 291.829946 37.142688 292.273277 32.694084 C 292.708965 28.24548 293.13701 23.796877 293.549767 19.348273 C 293.672065 18.285805 294.054248 17.422073 294.696314 16.764719 C 295.346024 16.092078 296.102746 15.65639 296.974122 15.450012 C 297.853141 15.235989 298.693943 15.235989 299.511813 15.450012 C 300.329684 15.65639 300.994681 16.092078 301.506806 16.764719 C 302.026574 17.422073 302.225309 18.285805 302.118298 19.348273 C 301.774333 22.887282 301.430369 26.418648 301.086405 29.934727 C 300.742441 33.450806 300.398477 36.951597 300.054512 40.452388 C 304.357887 39.542794 308.745342 38.916015 313.232164 38.57205 Z M 338.677872 32.357764 C 340.81045 33.802413 342.492053 35.682751 343.72268 37.998777 C 344.960952 40.322446 345.442502 42.798989 345.182617 45.428404 C 344.91509 47.698568 344.135438 49.662986 342.843661 51.30637 C 341.551884 52.934467 339.969649 54.210957 338.081667 55.120551 C 336.193686 56.030145 334.198694 56.534626 332.081403 56.641637 C 329.971755 56.733361 327.946188 56.37411 326.004702 55.57917 C 324.078502 54.784231 322.442761 53.48481 321.105122 51.696196 C 320.424838 50.817177 320.142023 49.976375 320.256677 49.158505 C 320.363688 48.340634 320.715296 47.629775 321.296214 47.025927 C 321.892418 46.414435 322.626209 45.98639 323.497585 45.73415 C 324.368961 45.481909 325.255624 45.474266 326.142287 45.703575 C 327.044238 45.932885 327.82389 46.490871 328.4736 47.362247 C 328.771703 47.782648 329.337333 48.019601 330.17049 48.073107 C 331.018935 48.126612 331.859737 48.088394 332.692895 47.958452 C 333.526052 47.820866 334.114613 47.675637 334.458578 47.530407 C 335.261161 47.148225 335.857365 46.582595 336.254835 45.841161 C 336.659949 45.099727 336.797534 44.2895 336.675236 43.418124 C 336.560581 42.355657 336.186042 41.476637 335.536332 40.803996 C 334.894266 40.116068 334.122257 39.512219 333.220306 39.007739 C 332.333643 38.48797 331.431692 37.991133 330.522098 37.517227 C 329.612504 37.043321 328.809921 36.523552 328.121992 35.957922 C 326.218724 34.27632 325.056889 32.457131 324.644132 30.492713 C 324.223731 28.535939 324.368961 26.579165 325.072176 24.630034 C 325.775392 22.67326 326.868434 20.89229 328.343658 19.294767 C 329.83417 17.697244 331.523416 16.458973 333.426685 15.579954 C 334.458578 15.083116 335.414034 14.953174 336.28541 15.190127 C 337.156786 15.411793 337.905863 15.839838 338.524999 16.466617 C 339.159422 17.093396 339.587466 17.827186 339.809132 18.667988 C 340.038442 19.508789 340.007867 20.311372 339.694477 21.091025 C 339.404019 21.870677 338.754308 22.489812 337.760634 22.948431 C 337.118568 23.23889 336.36949 23.659291 335.505758 24.20199 C 334.649669 24.729402 333.946453 25.363825 333.403754 26.105259 C 332.853411 26.846693 332.7464 27.67985 333.082721 28.589445 C 333.273812 29.200937 333.724787 29.720705 334.420359 30.164036 C 335.123575 30.599724 335.880296 30.98955 336.675236 31.333515 C 337.477819 31.677479 338.142817 32.013799 338.677872 32.357764 Z M 338.677872 32.357764 " stroke="#ffffff" stroke-width="14.977882" stroke-opacity="1" stroke-miterlimit="4"/><g fill="#3fb83d" fill-opacity="1"><g transform="translate(112.532328, 256.265171)"><g><path d="M 12.15625 -6.1875 C 12.71875 -6.164062 13.171875 -6.003906 13.515625 -5.703125 C 13.859375 -5.398438 14.082031 -5.03125 14.1875 -4.59375 C 14.289062 -4.15625 14.289062 -3.71875 14.1875 -3.28125 C 14.082031 -2.84375 13.859375 -2.484375 13.515625 -2.203125 C 13.171875 -1.921875 12.71875 -1.800781 12.15625 -1.84375 C 10.832031 -1.875 9.507812 -1.859375 8.1875 -1.796875 C 6.863281 -1.742188 5.546875 -1.613281 4.234375 -1.40625 C 3.816406 -1.320312 3.382812 -1.351562 2.9375 -1.5 C 2.5 -1.644531 2.128906 -1.882812 1.828125 -2.21875 C 1.523438 -2.550781 1.410156 -2.976562 1.484375 -3.5 C 1.816406 -6.195312 2.179688 -8.882812 2.578125 -11.5625 C 2.972656 -14.25 3.40625 -16.925781 3.875 -19.59375 C 3.9375 -19.925781 4.054688 -20.21875 4.234375 -20.46875 C 4.378906 -20.738281 4.597656 -20.960938 4.890625 -21.140625 C 5.179688 -21.316406 5.546875 -21.414062 5.984375 -21.4375 C 8.078125 -21.507812 10.175781 -21.46875 12.28125 -21.3125 C 12.84375 -21.269531 13.289062 -21.085938 13.625 -20.765625 C 13.96875 -20.453125 14.191406 -20.078125 14.296875 -19.640625 C 14.410156 -19.203125 14.410156 -18.769531 14.296875 -18.34375 C 14.191406 -17.914062 13.96875 -17.5625 13.625 -17.28125 C 13.289062 -17.007812 12.84375 -16.894531 12.28125 -16.9375 C 10.84375 -17.03125 9.375 -17.078125 7.875 -17.078125 C 7.769531 -16.515625 7.671875 -15.953125 7.578125 -15.390625 C 7.484375 -14.828125 7.394531 -14.265625 7.3125 -13.703125 C 8.113281 -13.679688 8.882812 -13.644531 9.625 -13.59375 C 10.207031 -13.507812 10.71875 -13.28125 11.15625 -12.90625 C 11.59375 -12.539062 11.8125 -12.039062 11.8125 -11.40625 C 11.8125 -11.03125 11.707031 -10.664062 11.5 -10.3125 C 11.300781 -9.96875 11.035156 -9.6875 10.703125 -9.46875 C 10.367188 -9.257812 10.007812 -9.175781 9.625 -9.21875 C 8.632812 -9.3125 7.640625 -9.347656 6.640625 -9.328125 C 6.566406 -8.785156 6.488281 -8.238281 6.40625 -7.6875 C 6.332031 -7.132812 6.257812 -6.570312 6.1875 -6 C 7.175781 -6.101562 8.164062 -6.171875 9.15625 -6.203125 C 10.144531 -6.242188 11.144531 -6.238281 12.15625 -6.1875 Z M 12.15625 -6.1875 "/></g></g></g><g fill="#3fb83d" fill-opacity="1"><g transform="translate(126.933879, 256.265171)"><g><path d="M 15.109375 -12.734375 C 15.160156 -10.816406 15.207031 -8.882812 15.25 -6.9375 C 15.289062 -5 15.335938 -3.054688 15.390625 -1.109375 C 15.410156 -0.546875 15.273438 -0.09375 14.984375 0.25 C 14.691406 0.59375 14.332031 0.816406 13.90625 0.921875 C 13.476562 1.023438 13.046875 1.023438 12.609375 0.921875 C 12.171875 0.816406 11.800781 0.59375 11.5 0.25 C 11.195312 -0.09375 11.035156 -0.546875 11.015625 -1.109375 C 10.992188 -1.691406 10.976562 -2.269531 10.96875 -2.84375 C 10.96875 -3.414062 10.957031 -3.992188 10.9375 -4.578125 L 6.5625 -4.75 C 6.40625 -4.007812 6.257812 -3.273438 6.125 -2.546875 C 5.988281 -1.816406 5.851562 -1.082031 5.71875 -0.34375 C 5.613281 0.21875 5.390625 0.625 5.046875 0.875 C 4.710938 1.125 4.320312 1.242188 3.875 1.234375 C 3.425781 1.222656 3.003906 1.101562 2.609375 0.875 C 2.210938 0.65625 1.898438 0.34375 1.671875 -0.0625 C 1.453125 -0.46875 1.390625 -0.953125 1.484375 -1.515625 C 1.835938 -3.421875 2.234375 -5.304688 2.671875 -7.171875 C 3.109375 -9.035156 3.722656 -10.851562 4.515625 -12.625 C 4.910156 -13.5 5.40625 -14.441406 6 -15.453125 C 6.601562 -16.460938 7.289062 -17.390625 8.0625 -18.234375 C 8.832031 -19.078125 9.679688 -19.695312 10.609375 -20.09375 C 11.484375 -20.457031 12.191406 -20.519531 12.734375 -20.28125 C 13.285156 -20.050781 13.710938 -19.632812 14.015625 -19.03125 C 14.328125 -18.4375 14.554688 -17.742188 14.703125 -16.953125 C 14.847656 -16.171875 14.945312 -15.398438 15 -14.640625 C 15.050781 -13.878906 15.085938 -13.242188 15.109375 -12.734375 Z M 7.75 -9.0625 C 8.28125 -9.039062 8.796875 -9.019531 9.296875 -9 C 9.804688 -8.988281 10.3125 -8.972656 10.8125 -8.953125 C 10.789062 -9.585938 10.773438 -10.222656 10.765625 -10.859375 C 10.765625 -11.492188 10.753906 -12.117188 10.734375 -12.734375 C 10.710938 -12.992188 10.703125 -13.265625 10.703125 -13.546875 C 10.703125 -13.828125 10.703125 -14.113281 10.703125 -14.40625 C 10.367188 -14.007812 10.085938 -13.640625 9.859375 -13.296875 C 9.460938 -12.710938 9.101562 -12.101562 8.78125 -11.46875 C 8.46875 -10.84375 8.1875 -10.207031 7.9375 -9.5625 C 7.914062 -9.488281 7.890625 -9.40625 7.859375 -9.3125 C 7.828125 -9.226562 7.789062 -9.144531 7.75 -9.0625 Z M 7.75 -9.0625 "/></g></g></g><g fill="#3fb83d" fill-opacity="1"><g transform="translate(142.355805, 256.265171)"><g><path d="M 10.875 -12.59375 C 11.96875 -11.851562 12.828125 -10.890625 13.453125 -9.703125 C 14.085938 -8.523438 14.335938 -7.265625 14.203125 -5.921875 C 14.066406 -4.753906 13.664062 -3.75 13 -2.90625 C 12.34375 -2.070312 11.53125 -1.421875 10.5625 -0.953125 C 9.601562 -0.492188 8.582031 -0.238281 7.5 -0.1875 C 6.425781 -0.132812 5.394531 -0.3125 4.40625 -0.71875 C 3.414062 -1.132812 2.578125 -1.800781 1.890625 -2.71875 C 1.546875 -3.15625 1.398438 -3.582031 1.453125 -4 C 1.515625 -4.425781 1.695312 -4.789062 2 -5.09375 C 2.300781 -5.40625 2.675781 -5.625 3.125 -5.75 C 3.570312 -5.882812 4.019531 -5.890625 4.46875 -5.765625 C 4.925781 -5.648438 5.320312 -5.367188 5.65625 -4.921875 C 5.8125 -4.710938 6.101562 -4.59375 6.53125 -4.5625 C 6.957031 -4.53125 7.382812 -4.546875 7.8125 -4.609375 C 8.238281 -4.679688 8.539062 -4.757812 8.71875 -4.84375 C 9.125 -5.03125 9.425781 -5.3125 9.625 -5.6875 C 9.832031 -6.070312 9.910156 -6.488281 9.859375 -6.9375 C 9.796875 -7.476562 9.597656 -7.925781 9.265625 -8.28125 C 8.941406 -8.632812 8.550781 -8.941406 8.09375 -9.203125 C 7.632812 -9.460938 7.171875 -9.710938 6.703125 -9.953125 C 6.234375 -10.203125 5.828125 -10.472656 5.484375 -10.765625 C 4.515625 -11.617188 3.921875 -12.546875 3.703125 -13.546875 C 3.484375 -14.546875 3.550781 -15.546875 3.90625 -16.546875 C 4.269531 -17.546875 4.832031 -18.453125 5.59375 -19.265625 C 6.351562 -20.085938 7.21875 -20.722656 8.1875 -21.171875 C 8.71875 -21.421875 9.207031 -21.488281 9.65625 -21.375 C 10.101562 -21.257812 10.484375 -21.039062 10.796875 -20.71875 C 11.117188 -20.394531 11.335938 -20.019531 11.453125 -19.59375 C 11.578125 -19.164062 11.5625 -18.75 11.40625 -18.34375 C 11.25 -17.945312 10.914062 -17.632812 10.40625 -17.40625 C 10.070312 -17.25 9.6875 -17.035156 9.25 -16.765625 C 8.8125 -16.492188 8.453125 -16.164062 8.171875 -15.78125 C 7.890625 -15.40625 7.835938 -14.984375 8.015625 -14.515625 C 8.109375 -14.203125 8.335938 -13.929688 8.703125 -13.703125 C 9.066406 -13.484375 9.453125 -13.285156 9.859375 -13.109375 C 10.265625 -12.941406 10.601562 -12.769531 10.875 -12.59375 Z M 10.875 -12.59375 "/></g></g></g><g fill="#3fb83d" fill-opacity="1"><g transform="translate(156.611588, 256.265171)"><g><path d="M 11.78125 -19.9375 C 11.832031 -20.5 12.03125 -20.921875 12.375 -21.203125 C 12.71875 -21.492188 13.109375 -21.65625 13.546875 -21.6875 C 13.984375 -21.726562 14.410156 -21.648438 14.828125 -21.453125 C 15.242188 -21.265625 15.570312 -20.972656 15.8125 -20.578125 C 16.0625 -20.191406 16.144531 -19.726562 16.0625 -19.1875 C 15.90625 -17.925781 15.757812 -16.585938 15.625 -15.171875 C 15.488281 -13.765625 15.289062 -12.351562 15.03125 -10.9375 C 14.769531 -9.519531 14.390625 -8.164062 13.890625 -6.875 C 13.398438 -5.59375 12.722656 -4.441406 11.859375 -3.421875 C 11.003906 -2.398438 9.910156 -1.582031 8.578125 -0.96875 C 8.066406 -0.726562 7.601562 -0.675781 7.1875 -0.8125 C 6.769531 -0.945312 6.429688 -1.191406 6.171875 -1.546875 C 5.921875 -1.910156 5.769531 -2.320312 5.71875 -2.78125 C 5.675781 -3.238281 5.753906 -3.675781 5.953125 -4.09375 C 6.160156 -4.507812 6.519531 -4.828125 7.03125 -5.046875 C 7.6875 -5.359375 8.222656 -5.773438 8.640625 -6.296875 C 9.054688 -6.816406 9.394531 -7.398438 9.65625 -8.046875 C 8.851562 -7.773438 8.039062 -7.644531 7.21875 -7.65625 C 6.394531 -7.664062 5.582031 -7.875 4.78125 -8.28125 C 3.726562 -8.800781 2.941406 -9.535156 2.421875 -10.484375 C 1.910156 -11.441406 1.609375 -12.488281 1.515625 -13.625 C 1.421875 -14.769531 1.472656 -15.910156 1.671875 -17.046875 C 1.878906 -18.179688 2.1875 -19.207031 2.59375 -20.125 C 2.8125 -20.644531 3.125 -20.992188 3.53125 -21.171875 C 3.9375 -21.359375 4.359375 -21.410156 4.796875 -21.328125 C 5.234375 -21.253906 5.625 -21.070312 5.96875 -20.78125 C 6.320312 -20.488281 6.5625 -20.128906 6.6875 -19.703125 C 6.8125 -19.273438 6.769531 -18.800781 6.5625 -18.28125 C 6.40625 -17.945312 6.25 -17.5 6.09375 -16.9375 C 5.9375 -16.375 5.820312 -15.78125 5.75 -15.15625 C 5.6875 -14.539062 5.710938 -13.96875 5.828125 -13.4375 C 5.941406 -12.914062 6.210938 -12.519531 6.640625 -12.25 C 7.035156 -11.976562 7.457031 -11.890625 7.90625 -11.984375 C 8.363281 -12.078125 8.800781 -12.285156 9.21875 -12.609375 C 9.644531 -12.929688 10.019531 -13.296875 10.34375 -13.703125 C 10.675781 -14.109375 10.941406 -14.476562 11.140625 -14.8125 C 11.253906 -15.664062 11.359375 -16.519531 11.453125 -17.375 C 11.554688 -18.226562 11.664062 -19.082031 11.78125 -19.9375 Z M 11.78125 -19.9375 "/></g></g></g><g fill="#3fb83d" fill-opacity="1"><g transform="translate(172.733201, 256.265171)"><g/></g></g><g fill="#3fb83d" fill-opacity="1"><g transform="translate(180.167062, 256.265171)"><g><path d="M 21.78125 -10.40625 C 21.800781 -8.769531 21.738281 -7.128906 21.59375 -5.484375 C 21.445312 -3.847656 21.296875 -2.210938 21.140625 -0.578125 C 21.078125 -0.0351562 20.882812 0.398438 20.5625 0.734375 C 20.25 1.078125 19.867188 1.300781 19.421875 1.40625 C 18.972656 1.519531 18.535156 1.519531 18.109375 1.40625 C 17.679688 1.300781 17.332031 1.082031 17.0625 0.75 C 16.800781 0.425781 16.703125 -0.015625 16.765625 -0.578125 C 16.898438 -1.859375 17.046875 -3.179688 17.203125 -4.546875 C 17.359375 -5.910156 17.457031 -7.269531 17.5 -8.625 C 17.550781 -9.988281 17.460938 -11.3125 17.234375 -12.59375 C 17.191406 -12.832031 17.125 -13.066406 17.03125 -13.296875 C 16.945312 -13.523438 16.894531 -13.757812 16.875 -14 C 16.664062 -13.738281 16.429688 -13.488281 16.171875 -13.25 C 15.910156 -13.007812 15.707031 -12.78125 15.5625 -12.5625 C 15.125 -11.882812 14.78125 -11.179688 14.53125 -10.453125 C 14.289062 -9.722656 14.101562 -8.96875 13.96875 -8.1875 C 13.882812 -7.707031 13.675781 -7.335938 13.34375 -7.078125 C 13.019531 -6.828125 12.644531 -6.679688 12.21875 -6.640625 C 11.789062 -6.609375 11.367188 -6.671875 10.953125 -6.828125 C 10.546875 -6.984375 10.21875 -7.222656 9.96875 -7.546875 C 9.71875 -7.878906 9.625 -8.289062 9.6875 -8.78125 C 9.71875 -9.300781 9.75 -9.828125 9.78125 -10.359375 C 9.8125 -10.898438 9.816406 -11.429688 9.796875 -11.953125 C 9.796875 -12.128906 9.800781 -12.375 9.8125 -12.6875 C 9.820312 -13.007812 9.8125 -13.328125 9.78125 -13.640625 C 9.75 -13.953125 9.664062 -14.1875 9.53125 -14.34375 C 9.488281 -14.382812 9.476562 -14.425781 9.5 -14.46875 C 9.476562 -14.46875 9.46875 -14.46875 9.46875 -14.46875 C 9.46875 -14.46875 9.460938 -14.46875 9.453125 -14.46875 C 9.273438 -14.425781 9.101562 -14.253906 8.9375 -13.953125 C 8.769531 -13.648438 8.648438 -13.441406 8.578125 -13.328125 C 8.359375 -12.972656 8.164062 -12.601562 8 -12.21875 C 7.832031 -11.84375 7.679688 -11.472656 7.546875 -11.109375 C 6.910156 -9.359375 6.492188 -7.5625 6.296875 -5.71875 C 6.097656 -3.882812 5.941406 -2.046875 5.828125 -0.203125 C 5.785156 0.359375 5.609375 0.800781 5.296875 1.125 C 4.992188 1.457031 4.625 1.679688 4.1875 1.796875 C 3.75 1.921875 3.316406 1.921875 2.890625 1.796875 C 2.460938 1.679688 2.109375 1.457031 1.828125 1.125 C 1.546875 0.800781 1.421875 0.359375 1.453125 -0.203125 C 1.554688 -1.734375 1.675781 -3.257812 1.8125 -4.78125 C 1.945312 -6.3125 2.175781 -7.828125 2.5 -9.328125 C 2.695312 -10.242188 2.957031 -11.203125 3.28125 -12.203125 C 3.601562 -13.203125 4 -14.15625 4.46875 -15.0625 C 4.945312 -15.976562 5.523438 -16.78125 6.203125 -17.46875 C 6.847656 -18.082031 7.601562 -18.5 8.46875 -18.71875 C 9.332031 -18.945312 10.175781 -18.929688 11 -18.671875 C 11.832031 -18.410156 12.519531 -17.878906 13.0625 -17.078125 C 13.082031 -17.023438 13.109375 -16.96875 13.140625 -16.90625 C 13.179688 -16.851562 13.210938 -16.804688 13.234375 -16.765625 C 13.796875 -17.421875 14.410156 -17.945312 15.078125 -18.34375 C 15.753906 -18.75 16.453125 -18.929688 17.171875 -18.890625 C 17.890625 -18.847656 18.628906 -18.5 19.390625 -17.84375 C 20.066406 -17.238281 20.570312 -16.519531 20.90625 -15.6875 C 21.238281 -14.851562 21.460938 -13.976562 21.578125 -13.0625 C 21.691406 -12.144531 21.757812 -11.257812 21.78125 -10.40625 Z M 21.78125 -10.40625 "/></g></g></g><g fill="#3fb83d" fill-opacity="1"><g transform="translate(201.973615, 256.265171)"><g><path d="M 12.15625 -6.15625 C 12.71875 -6.132812 13.171875 -5.96875 13.515625 -5.65625 C 13.859375 -5.34375 14.082031 -4.96875 14.1875 -4.53125 C 14.289062 -4.09375 14.289062 -3.660156 14.1875 -3.234375 C 14.082031 -2.804688 13.859375 -2.453125 13.515625 -2.171875 C 13.171875 -1.890625 12.71875 -1.757812 12.15625 -1.78125 C 10.832031 -1.832031 9.507812 -1.820312 8.1875 -1.75 C 6.863281 -1.6875 5.546875 -1.550781 4.234375 -1.34375 C 3.816406 -1.28125 3.382812 -1.320312 2.9375 -1.46875 C 2.5 -1.613281 2.128906 -1.851562 1.828125 -2.1875 C 1.523438 -2.519531 1.410156 -2.945312 1.484375 -3.46875 C 1.816406 -6.15625 2.179688 -8.835938 2.578125 -11.515625 C 2.972656 -14.203125 3.40625 -16.882812 3.875 -19.5625 C 3.9375 -19.894531 4.054688 -20.175781 4.234375 -20.40625 C 4.378906 -20.675781 4.597656 -20.90625 4.890625 -21.09375 C 5.179688 -21.28125 5.546875 -21.382812 5.984375 -21.40625 C 8.078125 -21.457031 10.175781 -21.414062 12.28125 -21.28125 C 12.84375 -21.238281 13.289062 -21.054688 13.625 -20.734375 C 13.96875 -20.421875 14.191406 -20.046875 14.296875 -19.609375 C 14.410156 -19.171875 14.410156 -18.738281 14.296875 -18.3125 C 14.191406 -17.882812 13.96875 -17.535156 13.625 -17.265625 C 13.289062 -16.992188 12.84375 -16.875 12.28125 -16.90625 C 10.84375 -17.007812 9.375 -17.0625 7.875 -17.0625 C 7.769531 -16.488281 7.671875 -15.921875 7.578125 -15.359375 C 7.484375 -14.796875 7.394531 -14.234375 7.3125 -13.671875 C 8.113281 -13.648438 8.882812 -13.601562 9.625 -13.53125 C 10.207031 -13.46875 10.71875 -13.242188 11.15625 -12.859375 C 11.59375 -12.484375 11.8125 -11.976562 11.8125 -11.34375 C 11.8125 -10.96875 11.707031 -10.601562 11.5 -10.25 C 11.300781 -9.90625 11.035156 -9.625 10.703125 -9.40625 C 10.367188 -9.195312 10.007812 -9.113281 9.625 -9.15625 C 8.632812 -9.25 7.640625 -9.296875 6.640625 -9.296875 C 6.566406 -8.753906 6.488281 -8.203125 6.40625 -7.640625 C 6.332031 -7.078125 6.257812 -6.523438 6.1875 -5.984375 C 7.175781 -6.078125 8.164062 -6.132812 9.15625 -6.15625 C 10.144531 -6.1875 11.144531 -6.1875 12.15625 -6.15625 Z M 12.15625 -6.15625 "/></g></g></g><g fill="#3fb83d" fill-opacity="1"><g transform="translate(216.375169, 256.265171)"><g><path d="M 15.109375 -12.734375 C 15.160156 -10.816406 15.207031 -8.882812 15.25 -6.9375 C 15.289062 -5 15.335938 -3.054688 15.390625 -1.109375 C 15.410156 -0.546875 15.273438 -0.09375 14.984375 0.25 C 14.691406 0.59375 14.332031 0.816406 13.90625 0.921875 C 13.476562 1.023438 13.046875 1.023438 12.609375 0.921875 C 12.171875 0.816406 11.800781 0.59375 11.5 0.25 C 11.195312 -0.09375 11.035156 -0.546875 11.015625 -1.109375 C 10.992188 -1.691406 10.976562 -2.269531 10.96875 -2.84375 C 10.96875 -3.414062 10.957031 -3.992188 10.9375 -4.578125 L 6.5625 -4.75 C 6.40625 -4.007812 6.257812 -3.273438 6.125 -2.546875 C 5.988281 -1.816406 5.851562 -1.082031 5.71875 -0.34375 C 5.613281 0.21875 5.390625 0.625 5.046875 0.875 C 4.710938 1.125 4.320312 1.242188 3.875 1.234375 C 3.425781 1.222656 3.003906 1.101562 2.609375 0.875 C 2.210938 0.65625 1.898438 0.34375 1.671875 -0.0625 C 1.453125 -0.46875 1.390625 -0.953125 1.484375 -1.515625 C 1.835938 -3.421875 2.234375 -5.304688 2.671875 -7.171875 C 3.109375 -9.035156 3.722656 -10.851562 4.515625 -12.625 C 4.910156 -13.5 5.40625 -14.441406 6 -15.453125 C 6.601562 -16.460938 7.289062 -17.390625 8.0625 -18.234375 C 8.832031 -19.078125 9.679688 -19.695312 10.609375 -20.09375 C 11.484375 -20.457031 12.191406 -20.519531 12.734375 -20.28125 C 13.285156 -20.050781 13.710938 -19.632812 14.015625 -19.03125 C 14.328125 -18.4375 14.554688 -17.742188 14.703125 -16.953125 C 14.847656 -16.171875 14.945312 -15.398438 15 -14.640625 C 15.050781 -13.878906 15.085938 -13.242188 15.109375 -12.734375 Z M 7.75 -9.0625 C 8.28125 -9.039062 8.796875 -9.019531 9.296875 -9 C 9.804688 -8.988281 10.3125 -8.972656 10.8125 -8.953125 C 10.789062 -9.585938 10.773438 -10.222656 10.765625 -10.859375 C 10.765625 -11.492188 10.753906 -12.117188 10.734375 -12.734375 C 10.710938 -12.992188 10.703125 -13.265625 10.703125 -13.546875 C 10.703125 -13.828125 10.703125 -14.113281 10.703125 -14.40625 C 10.367188 -14.007812 10.085938 -13.640625 9.859375 -13.296875 C 9.460938 -12.710938 9.101562 -12.101562 8.78125 -11.46875 C 8.46875 -10.84375 8.1875 -10.207031 7.9375 -9.5625 C 7.914062 -9.488281 7.890625 -9.40625 7.859375 -9.3125 C 7.828125 -9.226562 7.789062 -9.144531 7.75 -9.0625 Z M 7.75 -9.0625 "/></g></g></g><g fill="#3fb83d" fill-opacity="1"><g transform="translate(231.797097, 256.265171)"><g><path d="M 12.859375 -9.421875 C 13.421875 -9.453125 13.863281 -9.335938 14.1875 -9.078125 C 14.519531 -8.816406 14.742188 -8.472656 14.859375 -8.046875 C 14.984375 -7.617188 14.984375 -7.179688 14.859375 -6.734375 C 14.742188 -6.285156 14.515625 -5.898438 14.171875 -5.578125 C 13.835938 -5.265625 13.398438 -5.085938 12.859375 -5.046875 C 11.378906 -4.929688 9.925781 -4.738281 8.5 -4.46875 C 7.070312 -4.207031 5.648438 -3.875 4.234375 -3.46875 C 3.816406 -3.351562 3.382812 -3.378906 2.9375 -3.546875 C 2.5 -3.710938 2.132812 -3.972656 1.84375 -4.328125 C 1.550781 -4.691406 1.421875 -5.113281 1.453125 -5.59375 C 1.691406 -7.875 1.921875 -10.148438 2.140625 -12.421875 C 2.367188 -14.691406 2.585938 -16.96875 2.796875 -19.25 C 2.859375 -19.789062 3.050781 -20.226562 3.375 -20.5625 C 3.707031 -20.90625 4.097656 -21.128906 4.546875 -21.234375 C 4.992188 -21.347656 5.425781 -21.347656 5.84375 -21.234375 C 6.257812 -21.128906 6.597656 -20.90625 6.859375 -20.5625 C 7.128906 -20.226562 7.234375 -19.789062 7.171875 -19.25 C 6.992188 -17.4375 6.816406 -15.628906 6.640625 -13.828125 C 6.472656 -12.035156 6.300781 -10.242188 6.125 -8.453125 C 8.320312 -8.921875 10.566406 -9.242188 12.859375 -9.421875 Z M 12.859375 -9.421875 "/></g></g></g><g fill="#3fb83d" fill-opacity="1"><g transform="translate(246.781717, 256.265171)"><g><path d="M 10.875 -12.59375 C 11.96875 -11.851562 12.828125 -10.890625 13.453125 -9.703125 C 14.085938 -8.523438 14.335938 -7.265625 14.203125 -5.921875 C 14.066406 -4.753906 13.664062 -3.75 13 -2.90625 C 12.34375 -2.070312 11.53125 -1.421875 10.5625 -0.953125 C 9.601562 -0.492188 8.582031 -0.238281 7.5 -0.1875 C 6.425781 -0.132812 5.394531 -0.3125 4.40625 -0.71875 C 3.414062 -1.132812 2.578125 -1.800781 1.890625 -2.71875 C 1.546875 -3.15625 1.398438 -3.582031 1.453125 -4 C 1.515625 -4.425781 1.695312 -4.789062 2 -5.09375 C 2.300781 -5.40625 2.675781 -5.625 3.125 -5.75 C 3.570312 -5.882812 4.019531 -5.890625 4.46875 -5.765625 C 4.925781 -5.648438 5.320312 -5.367188 5.65625 -4.921875 C 5.8125 -4.710938 6.101562 -4.59375 6.53125 -4.5625 C 6.957031 -4.53125 7.382812 -4.546875 7.8125 -4.609375 C 8.238281 -4.679688 8.539062 -4.757812 8.71875 -4.84375 C 9.125 -5.03125 9.425781 -5.3125 9.625 -5.6875 C 9.832031 -6.070312 9.910156 -6.488281 9.859375 -6.9375 C 9.796875 -7.476562 9.597656 -7.925781 9.265625 -8.28125 C 8.941406 -8.632812 8.550781 -8.941406 8.09375 -9.203125 C 7.632812 -9.460938 7.171875 -9.710938 6.703125 -9.953125 C 6.234375 -10.203125 5.828125 -10.472656 5.484375 -10.765625 C 4.515625 -11.617188 3.921875 -12.546875 3.703125 -13.546875 C 3.484375 -14.546875 3.550781 -15.546875 3.90625 -16.546875 C 4.269531 -17.546875 4.832031 -18.453125 5.59375 -19.265625 C 6.351562 -20.085938 7.21875 -20.722656 8.1875 -21.171875 C 8.71875 -21.421875 9.207031 -21.488281 9.65625 -21.375 C 10.101562 -21.257812 10.484375 -21.039062 10.796875 -20.71875 C 11.117188 -20.394531 11.335938 -20.019531 11.453125 -19.59375 C 11.578125 -19.164062 11.5625 -18.75 11.40625 -18.34375 C 11.25 -17.945312 10.914062 -17.632812 10.40625 -17.40625 C 10.070312 -17.25 9.6875 -17.035156 9.25 -16.765625 C 8.8125 -16.492188 8.453125 -16.164062 8.171875 -15.78125 C 7.890625 -15.40625 7.835938 -14.984375 8.015625 -14.515625 C 8.109375 -14.203125 8.335938 -13.929688 8.703125 -13.703125 C 9.066406 -13.484375 9.453125 -13.285156 9.859375 -13.109375 C 10.265625 -12.941406 10.601562 -12.769531 10.875 -12.59375 Z M 10.875 -12.59375 "/></g></g></g></svg>