<svg xmlns="http://www.w3.org/2000/svg" xmlns:xlink="http://www.w3.org/1999/xlink" width="500" zoomAndPan="magnify" viewBox="0 0 375 374.999991" height="500" preserveAspectRatio="xMidYMid meet" version="1.0"><defs><clipPath id="d0c2424774"><path d="M 0.277344 3.75 L 374.691406 3.75 L 374.691406 371.25 L 0.277344 371.25 Z M 0.277344 3.75 " clip-rule="nonzero"/></clipPath><clipPath id="c51e50505b"><path d="M 137.023438 22 L 238 22 L 238 89.214844 L 137.023438 89.214844 Z M 137.023438 22 " clip-rule="nonzero"/></clipPath></defs><rect x="-37.5" width="450" fill="#ffffff" y="-37.499999" height="449.999989" fill-opacity="1"/><rect x="-37.5" width="450" fill="#ffffff" y="-37.499999" height="449.999989" fill-opacity="1"/><g clip-path="url(#d0c2424774)"><path fill="#427d0e" d="M 374.65625 192.476562 C 372.601562 88.285156 286.40625 3.746094 182.21875 3.746094 C 91.128906 3.746094 16.375 68.234375 0.277344 153.957031 C 5.960938 135.488281 17.089844 111.726562 38.714844 91.597656 C 81.101562 52.054688 113.230469 47.792969 113.230469 47.792969 C 16.695312 98.625 -8.089844 219.074219 26.71875 290.984375 C 47.007812 323.109375 76.605469 348.921875 111.574219 364.628906 C 121.359375 366.996094 130.828125 367.390625 130.59375 354.210938 L 130.671875 354.210938 C 124.75 331.632812 111.652344 288.457031 105.179688 282.378906 C 96.730469 274.484375 77.628906 278.75 69.972656 269.199219 C 62.316406 259.566406 33.980469 138.246094 33.980469 138.246094 C 33.980469 138.246094 36.503906 135.328125 39.109375 136.355469 C 41.714844 137.539062 73.132812 245.679688 76.289062 248.125 C 79.449219 250.570312 78.894531 249.148438 80.707031 249.230469 C 82.050781 248.835938 83.945312 248.597656 84.339844 243.546875 C 84.738281 238.414062 49.6875 137.457031 49.609375 135.800781 C 49.453125 134.066406 49.058594 128.777344 53.003906 129.488281 C 56.949219 130.121094 94.128906 235.179688 96.417969 237.78125 C 98.78125 240.386719 100.128906 239.757812 101.863281 239.601562 C 103.046875 238.652344 104.070312 238.570312 104.070312 235.257812 C 104.152344 232.019531 63.1875 128.144531 65.710938 125.144531 C 68.238281 122.066406 71.472656 126.328125 72.5 127.75 C 73.527344 129.171875 113.464844 228.46875 117.097656 232.019531 C 120.648438 235.570312 122.148438 234.628906 123.414062 234.152344 C 124.910156 232.886719 125.464844 234.234375 126.332031 230.363281 C 127.121094 226.414062 79.683594 124.121094 80.867188 121.59375 C 82.128906 119.148438 86.074219 119.777344 86.074219 119.777344 C 86.074219 119.777344 144.25 230.363281 144.804688 242.441406 C 145.355469 254.597656 127.753906 264.777344 126.648438 276.144531 C 125.699219 284.90625 146.382812 332.1875 158.222656 356.5 C 160.746094 361.078125 165.007812 367.3125 170.613281 369.679688 C 180.007812 373.707031 183.796875 369.917969 183.875 360.445312 L 184.980469 253.726562 C 184.585938 250.097656 183.953125 246.546875 182.691406 243.941406 C 181.265625 241.179688 179.21875 239.046875 177.324219 237.625 C 158.695312 231.390625 145.039062 213.316406 144.410156 181.1875 C 143.699219 140.460938 164.140625 92.46875 190.582031 92.46875 C 217.027344 92.46875 239.363281 140.460938 240.152344 181.1875 C 240.789062 211.5 229.261719 229.257812 212.527344 236.441406 C 210.550781 238.175781 207.871094 240.863281 206.214844 244.097656 C 205.109375 246.386719 204.554688 250.414062 204.394531 254.359375 L 208.5 358.3125 L 208.582031 358.3125 C 208.582031 358.3125 211.898438 368.65625 217.5 368.335938 C 220.34375 368.179688 222.234375 364.628906 223.421875 361.234375 L 223.339844 361.234375 C 223.339844 361.234375 223.738281 359.8125 224.523438 357.289062 C 224.84375 355.789062 224.996094 354.761719 224.996094 354.761719 L 225.234375 354.84375 C 234.945312 322.164062 278.59375 174.71875 281.910156 160.351562 C 285.695312 144.167969 295.800781 107.230469 306.773438 113.464844 C 317.746094 119.699219 322.085938 166.347656 315.535156 217.339844 C 308.90625 268.332031 296.90625 298.5625 284.59375 311.269531 C 272.199219 323.898438 257.835938 315.375 252.074219 331.160156 C 248.203125 341.894531 245.519531 353.890625 244.179688 360.605469 C 244.574219 362.808594 246.074219 367.863281 251.28125 368.65625 C 253.964844 369.128906 257.046875 368.496094 259.730469 367.707031 C 261.863281 366.761719 264.066406 365.890625 266.199219 364.863281 C 331.476562 335.421875 376.152344 269.355469 374.65625 192.476562 " fill-opacity="1" fill-rule="evenodd"/></g><g clip-path="url(#c51e50505b)"><path fill="#fffff7" d="M 162.195312 36.613281 C 162.246094 36.402344 162.300781 36.195312 162.359375 35.988281 C 162.621094 35.042969 162.96875 34.152344 163.367188 33.308594 C 165.070312 29.714844 167.855469 27.019531 171.230469 25.175781 C 174.464844 23.410156 178.25 22.441406 182.128906 22.203125 C 187.851562 21.855469 193.789062 23.113281 198.53125 25.800781 C 201.992188 27.757812 204.8125 30.472656 206.476562 33.863281 C 206.648438 34.214844 206.824219 34.5625 207.003906 34.898438 C 214.820312 32.105469 221.425781 32.820312 226.445312 35.527344 C 234.171875 39.695312 238.164062 48.632812 237.042969 57.101562 C 235.824219 66.304688 228.613281 75.011719 213.546875 76.304688 L 213.546875 88.199219 C 213.546875 88.496094 213.386719 88.765625 213.132812 88.914062 C 212.878906 89.0625 212.5625 89.066406 212.308594 88.917969 C 195.871094 79.640625 178.796875 79.597656 161.070312 88.929688 C 160.8125 89.066406 160.503906 89.058594 160.253906 88.910156 C 160.003906 88.757812 159.851562 88.488281 159.851562 88.199219 L 159.851562 78.527344 C 144.320312 77.894531 137.136719 67.238281 137.632812 56.859375 C 138.132812 46.375 146.492188 36.074219 162.195312 36.613281 Z M 162.195312 36.613281 " fill-opacity="1" fill-rule="evenodd"/><path fill="#414143" d="M 162.109375 36.5 C 162.15625 36.320312 162.203125 36.140625 162.25 35.960938 C 162.515625 35.011719 162.863281 34.113281 163.265625 33.261719 C 164.980469 29.648438 167.785156 26.9375 171.179688 25.082031 C 174.425781 23.308594 178.226562 22.335938 182.125 22.097656 C 187.863281 21.746094 193.828125 23.011719 198.585938 25.707031 C 202.066406 27.675781 204.902344 30.40625 206.578125 33.816406 C 206.734375 34.140625 206.894531 34.457031 207.058594 34.765625 C 214.871094 31.996094 221.476562 32.722656 226.5 35.429688 C 234.261719 39.621094 238.28125 48.605469 237.152344 57.121094 C 235.933594 66.34375 228.722656 75.078125 213.65625 76.40625 L 213.65625 88.203125 C 213.65625 88.535156 213.480469 88.84375 213.191406 89.011719 C 212.902344 89.179688 212.546875 89.179688 212.253906 89.015625 C 195.851562 79.757812 178.8125 79.71875 161.121094 89.03125 C 160.828125 89.183594 160.480469 89.171875 160.195312 89.003906 C 159.914062 88.835938 159.742188 88.53125 159.742188 88.203125 L 159.742188 78.632812 C 144.203125 77.953125 137.027344 67.261719 137.523438 56.859375 C 138.023438 46.339844 146.386719 36.003906 162.109375 36.5 Z M 178.839844 64.191406 C 173.121094 65.144531 167.382812 67.109375 161.621094 70.078125 L 161.621094 86.664062 C 178.941406 77.996094 195.65625 78.035156 211.777344 86.617188 L 211.777344 71.300781 C 198.726562 77.773438 186.292969 73.484375 178.976562 64.332031 C 178.929688 64.289062 178.882812 64.242188 178.839844 64.191406 Z M 219.660156 43.757812 C 216.828125 44.488281 214.375 44.203125 212.199219 43.105469 C 211.199219 42.601562 210.265625 41.917969 209.390625 41.074219 C 207.714844 39.457031 206.28125 37.242188 204.957031 34.613281 C 203.425781 31.535156 200.824219 29.09375 197.671875 27.320312 C 193.203125 24.808594 187.617188 23.644531 182.238281 23.96875 C 178.617188 24.191406 175.09375 25.089844 172.066406 26.710938 C 168.984375 28.367188 166.425781 30.773438 164.820312 34.011719 C 164.441406 34.773438 164.121094 35.585938 163.84375 36.4375 C 163.582031 37.25 163.355469 38.097656 163.195312 38.992188 C 162.9375 40.367188 162.914062 42.382812 163.066406 44.347656 C 163.226562 46.449219 163.574219 48.488281 164.078125 49.648438 C 164.152344 49.808594 164.085938 49.996094 163.925781 50.074219 C 163.765625 50.152344 163.570312 50.085938 163.492188 49.925781 C 162.871094 48.757812 162.320312 46.65625 161.984375 44.472656 C 161.660156 42.394531 161.542969 40.253906 161.710938 38.773438 C 161.726562 38.636719 161.742188 38.5 161.761719 38.363281 C 147.519531 38.042969 139.855469 47.359375 139.398438 56.949219 C 138.945312 66.445312 145.589844 76.09375 159.742188 76.757812 L 159.742188 74.546875 C 158.660156 74.78125 157.648438 74.867188 156.707031 74.773438 C 155.925781 74.695312 155.1875 74.507812 154.511719 74.203125 C 153.667969 73.820312 152.910156 73.285156 152.25 72.582031 C 151.667969 71.96875 151.167969 71.253906 150.726562 70.410156 C 150.613281 70.238281 150.660156 70.003906 150.835938 69.890625 C 151.007812 69.773438 151.238281 69.820312 151.355469 69.988281 C 151.796875 70.503906 152.257812 70.933594 152.738281 71.316406 C 153.480469 71.914062 154.273438 72.308594 155.132812 72.574219 C 155.679688 72.738281 156.253906 72.832031 156.863281 72.871094 C 157.699219 72.921875 158.597656 72.863281 159.570312 72.640625 L 159.742188 72.601562 L 159.742188 70.488281 L 159.1875 70.363281 L 159.183594 70.363281 C 157.261719 69.863281 155.601562 69.097656 154.226562 68.039062 C 153.242188 67.285156 152.394531 66.390625 151.699219 65.355469 C 150.894531 64.160156 150.285156 62.789062 149.863281 61.246094 C 149.5 59.925781 149.28125 58.488281 149.1875 56.921875 C 149.164062 56.714844 149.3125 56.53125 149.519531 56.503906 C 149.722656 56.476562 149.914062 56.621094 149.941406 56.828125 C 150.164062 57.988281 150.464844 59.054688 150.816406 60.054688 C 151.394531 61.707031 152.167969 63.121094 153.121094 64.328125 C 153.777344 65.164062 154.527344 65.886719 155.378906 66.515625 C 156.589844 67.402344 158.003906 68.09375 159.667969 68.535156 L 160.257812 68.675781 C 166.082031 65.617188 171.882812 63.558594 177.664062 62.496094 C 177.449219 62.152344 177.234375 61.777344 177.023438 61.375 C 176.558594 60.484375 176.113281 59.453125 175.761719 58.292969 C 175.539062 57.566406 175.339844 56.789062 175.21875 55.960938 C 175.144531 55.449219 175.078125 54.917969 175.078125 54.367188 C 175.078125 53.519531 175.199219 52.664062 175.367188 51.75 C 175.378906 51.570312 175.527344 51.433594 175.707031 51.4375 C 175.882812 51.441406 176.023438 51.589844 176.023438 51.765625 C 176.140625 52.640625 176.34375 53.425781 176.519531 54.210938 C 176.632812 54.703125 176.726562 55.183594 176.839844 55.644531 C 177.023438 56.386719 177.226562 57.082031 177.460938 57.734375 C 177.828125 58.769531 178.265625 59.6875 178.699219 60.488281 C 179.21875 61.449219 179.738281 62.242188 180.179688 62.847656 C 180.21875 62.882812 180.257812 62.925781 180.292969 62.96875 C 187.144531 71.703125 198.960938 75.757812 211.320312 69.429688 C 211.347656 69.417969 211.371094 69.402344 211.394531 69.390625 C 211.410156 69.382812 211.425781 69.378906 211.4375 69.371094 C 211.667969 69.25 211.902344 69.128906 212.132812 69 C 212.96875 68.519531 214.113281 67.726562 215.304688 66.492188 C 215.988281 65.78125 216.691406 64.933594 217.367188 63.914062 C 218.058594 62.867188 218.722656 61.644531 219.324219 60.210938 C 219.828125 59.003906 220.3125 57.675781 220.691406 56.15625 C 220.726562 55.96875 220.910156 55.839844 221.097656 55.871094 C 221.289062 55.902344 221.417969 56.082031 221.390625 56.273438 C 221.242188 57.898438 220.996094 59.351562 220.625 60.660156 C 220.167969 62.28125 219.546875 63.65625 218.871094 64.835938 C 218.191406 66.019531 217.4375 66.996094 216.6875 67.796875 C 215.613281 68.953125 214.539062 69.75 213.65625 70.296875 L 213.65625 71.828125 C 214.714844 71.609375 215.621094 71.273438 216.425781 70.894531 C 217.046875 70.601562 217.609375 70.292969 218.097656 69.90625 C 218.988281 69.210938 219.683594 68.378906 220.152344 67.308594 C 220.21875 67.117188 220.429688 67.007812 220.628906 67.066406 C 220.824219 67.128906 220.9375 67.335938 220.878906 67.535156 C 220.726562 68.367188 220.460938 69.125 220.070312 69.828125 C 219.667969 70.554688 219.132812 71.199219 218.460938 71.765625 C 217.96875 72.179688 217.398438 72.535156 216.757812 72.839844 C 215.941406 73.222656 215 73.492188 213.953125 73.703125 L 213.65625 73.753906 L 213.65625 74.527344 C 227.449219 73.25 234.167969 65.355469 235.289062 56.875 C 236.316406 49.109375 232.6875 40.898438 225.605469 37.078125 C 221.039062 34.617188 215.0625 33.996094 207.992188 36.421875 C 208.804688 37.75 209.667969 38.90625 210.597656 39.871094 C 211.332031 40.636719 212.097656 41.285156 212.933594 41.796875 C 214.785156 42.929688 216.921875 43.398438 219.5 42.996094 C 219.710938 42.957031 219.914062 43.089844 219.957031 43.300781 C 220 43.507812 219.867188 43.710938 219.660156 43.757812 Z M 219.660156 43.757812 " fill-opacity="1" fill-rule="evenodd"/></g></svg>